<svg xmlns="http://www.w3.org/2000/svg" xmlns:xlink="http://www.w3.org/1999/xlink" width="350" zoomAndPan="magnify" viewBox="0 0 262.5 262.500001" height="350" preserveAspectRatio="xMidYMid meet" version="1.0"><defs><filter x="0%" y="0%" width="100%" height="100%" id="ee941c9c27"><feColorMatrix values="0 0 0 0 1 0 0 0 0 1 0 0 0 0 1 0 0 0 1 0" color-interpolation-filters="sRGB"/></filter><g/><mask id="f01cb4f75b"><g filter="url(#ee941c9c27)"><rect x="-26.25" width="315" fill="#000000" y="-26.25" height="315.000001" fill-opacity="0.39"/></g></mask><clipPath id="0ae8cfcea8"><path d="M 0.597656 0.226562 L 85.582031 0.226562 L 85.582031 85.210938 L 0.597656 85.210938 Z M 0.597656 0.226562 " clip-rule="nonzero"/></clipPath><clipPath id="cf62cb999e"><rect x="0" width="86" y="0" height="86"/></clipPath></defs><g fill="#000000" fill-opacity="1"><g transform="translate(92.655612, 120.517509)"><g><path d="M 16.046875 -88 C 16.484375 -88.4375 16.957031 -88.65625 17.46875 -88.65625 C 18.5625 -88.65625 20.132812 -87.335938 22.1875 -84.703125 C 24.601562 -81.703125 26.765625 -79.210938 28.671875 -77.234375 C 30.941406 -74.816406 32.078125 -73.460938 32.078125 -73.171875 C 32.078125 -72.953125 31.75 -72.398438 31.09375 -71.515625 C 30.582031 -70.859375 30.03125 -70.53125 29.4375 -70.53125 C 28.195312 -70.53125 26.035156 -72.175781 22.953125 -75.46875 L 18.78125 -80.09375 L 16.8125 -76.46875 C 15.269531 -73.820312 13.765625 -71.585938 12.296875 -69.765625 L 10 -66.578125 L 11.09375 -59 C 11.09375 -59 11.382812 -57.128906 11.96875 -53.390625 L 13.625 -42.296875 C 14.28125 -37.316406 15.378906 -30.867188 16.921875 -22.953125 C 18.304688 -15.191406 19.222656 -10.617188 19.671875 -9.234375 C 19.960938 -8.492188 20.21875 -8.457031 20.4375 -9.125 L 20.4375 -9.234375 C 21.238281 -11.867188 22.847656 -21.644531 25.265625 -38.5625 C 27.242188 -51.96875 28.597656 -59.398438 29.328125 -60.859375 C 29.765625 -61.515625 30.390625 -61.84375 31.203125 -61.84375 C 31.859375 -61.84375 32.476562 -61.585938 33.0625 -61.078125 C 33.726562 -60.640625 34.0625 -60.164062 34.0625 -59.65625 C 34.0625 -59.070312 32.519531 -51.234375 29.4375 -36.140625 C 26.4375 -21.710938 24.535156 -12.410156 23.734375 -8.234375 C 23.140625 -5.015625 22.660156 -3.039062 22.296875 -2.3125 C 21.640625 -1.207031 20.648438 -0.65625 19.328125 -0.65625 L 18.78125 -0.765625 C 17.976562 -1.128906 16.695312 -5.632812 14.9375 -14.28125 C 14.351562 -17.644531 13.363281 -22.003906 11.96875 -27.359375 C 10.363281 -34.242188 8.390625 -44.238281 6.046875 -57.34375 L 4.390625 -66.25 L 4.390625 -66.90625 C 4.390625 -67.707031 4.976562 -68.804688 6.15625 -70.203125 C 8.351562 -72.984375 10.398438 -76.054688 12.296875 -79.421875 C 14.347656 -82.867188 15.375 -85.175781 15.375 -86.34375 C 15.375 -87.007812 15.597656 -87.5625 16.046875 -88 Z M 16.046875 -88 "/></g></g></g><g fill="#000000" fill-opacity="1"><g transform="translate(131.104059, 120.517509)"><g><path d="M 3.953125 -83.609375 C 4.460938 -84.117188 4.976562 -84.375 5.5 -84.375 C 6.375 -84.375 7.691406 -83.710938 9.453125 -82.390625 C 11.796875 -80.710938 14.101562 -79.875 16.375 -79.875 C 17.46875 -79.875 18.675781 -80.054688 20 -80.421875 C 21.601562 -80.929688 22.847656 -81.550781 23.734375 -82.28125 C 24.390625 -82.945312 25.15625 -83.28125 26.03125 -83.28125 C 26.988281 -83.28125 27.613281 -82.945312 27.90625 -82.28125 C 27.976562 -82.207031 28.015625 -82.023438 28.015625 -81.734375 C 28.015625 -80.046875 26.878906 -74.8125 24.609375 -66.03125 C 22.117188 -56.132812 20.875 -50.75 20.875 -49.875 C 20.875 -49.4375 21.347656 -48.960938 22.296875 -48.453125 C 23.617188 -47.859375 24.425781 -47.597656 24.71875 -47.671875 C 25.375 -47.671875 25.957031 -48.550781 26.46875 -50.3125 C 27.71875 -53.613281 28.632812 -55.226562 29.21875 -55.15625 L 29.765625 -55.046875 C 31.085938 -54.597656 31.566406 -54.046875 31.203125 -53.390625 C 30.171875 -51.628906 29.507812 -49.835938 29.21875 -48.015625 C 28.488281 -44.273438 27.6875 -42.40625 26.8125 -42.40625 L 26.59375 -42.40625 C 25.5625 -42.40625 24.347656 -42.769531 22.953125 -43.5 C 20.835938 -44.457031 19.664062 -44.9375 19.4375 -44.9375 C 19.289062 -44.9375 17.828125 -39.585938 15.046875 -28.890625 C 12.117188 -17.679688 10.726562 -11.859375 10.875 -11.421875 C 10.875 -11.347656 10.945312 -11.3125 11.09375 -11.3125 C 11.382812 -11.3125 11.828125 -11.566406 12.421875 -12.078125 C 13.441406 -13.035156 14.390625 -13.660156 15.265625 -13.953125 C 16.078125 -14.242188 17.320312 -14.390625 19 -14.390625 C 20.90625 -14.390625 22.554688 -14.0625 23.953125 -13.40625 C 24.390625 -13.1875 25.925781 -11.976562 28.5625 -9.78125 L 31.53125 -7.46875 L 31.640625 -7.46875 L 31.640625 -7.90625 C 31.710938 -7.976562 31.75 -8.125 31.75 -8.34375 C 31.53125 -10.613281 31.457031 -11.859375 31.53125 -12.078125 L 31.53125 -21.203125 C 31.53125 -23.691406 31.820312 -25.117188 32.40625 -25.484375 C 33.207031 -25.484375 33.722656 -25.265625 33.953125 -24.828125 C 34.316406 -23.953125 34.644531 -21.425781 34.9375 -17.25 L 34.9375 -1.3125 L 33.171875 -1.53125 C 31.859375 -1.675781 30.875 -2.15625 30.21875 -2.96875 C 29.550781 -3.988281 28.265625 -5.488281 26.359375 -7.46875 C 24.679688 -9.15625 23.507812 -10.144531 22.84375 -10.4375 C 21.894531 -10.945312 20.613281 -11.203125 19 -11.203125 C 16.363281 -11.203125 13.835938 -9.628906 11.421875 -6.484375 L 8.015625 -2.203125 C 7.210938 -1.171875 6.664062 -0.65625 6.375 -0.65625 C 6.226562 -0.65625 5.972656 -0.835938 5.609375 -1.203125 C 5.304688 -1.492188 5.15625 -1.898438 5.15625 -2.421875 C 5.15625 -3.003906 5.925781 -6.222656 7.46875 -12.078125 C 9.519531 -19.773438 11.570312 -28.457031 13.625 -38.125 L 15.375 -46.578125 L 14.28125 -47.34375 C 13.550781 -47.863281 12.96875 -48.125 12.53125 -48.125 C 12.007812 -48.125 11.75 -47.828125 11.75 -47.234375 C 11.75 -46.285156 11.53125 -45.59375 11.09375 -45.15625 C 10.65625 -44.644531 10.109375 -44.390625 9.453125 -44.390625 C 8.785156 -44.390625 8.304688 -44.753906 8.015625 -45.484375 C 7.578125 -46.285156 7.175781 -47.675781 6.8125 -49.65625 L 6.484375 -52.40625 C 6.484375 -52.988281 6.59375 -53.425781 6.8125 -53.71875 C 7.25 -54.226562 7.757812 -54.484375 8.34375 -54.484375 C 9.445312 -54.484375 10.914062 -54.007812 12.75 -53.0625 C 13.988281 -52.332031 15.125 -51.96875 16.15625 -51.96875 L 16.265625 -51.96875 C 16.335938 -51.894531 17.210938 -55.554688 18.890625 -62.953125 C 20.503906 -70.128906 21.3125 -74.007812 21.3125 -74.59375 C 21.3125 -74.957031 19.773438 -75.140625 16.703125 -75.140625 C 13.546875 -75.140625 11.601562 -75.210938 10.875 -75.359375 C 10.800781 -75.429688 10.65625 -75.46875 10.4375 -75.46875 C 10.070312 -75.46875 9.890625 -75.210938 9.890625 -74.703125 L 9.890625 -74.15625 C 9.960938 -74.082031 10 -73.863281 10 -73.5 L 10 -72.734375 C 10 -70.609375 9.15625 -69.546875 7.46875 -69.546875 C 6.738281 -69.546875 6.15625 -69.945312 5.71875 -70.75 C 5.269531 -71.550781 4.863281 -73.125 4.5 -75.46875 C 4.0625 -78.40625 3.695312 -80.347656 3.40625 -81.296875 C 3.332031 -81.441406 3.296875 -81.660156 3.296875 -81.953125 C 3.296875 -82.609375 3.515625 -83.160156 3.953125 -83.609375 Z M 3.953125 -83.609375 "/></g></g></g><g mask="url(#f01cb4f75b)"><g transform="matrix(1, 0, 0, 1, 88, 34)"><g clip-path="url(#cf62cb999e)"><g clip-path="url(#0ae8cfcea8)"><path fill="#231f20" d="M 73.171875 12.703125 C 65.144531 4.679688 54.472656 0.257812 43.125 0.257812 C 31.773438 0.257812 21.101562 4.679688 13.074219 12.703125 C 5.050781 20.730469 0.628906 31.402344 0.628906 42.753906 C 0.628906 54.101562 5.050781 64.773438 13.074219 72.800781 C 21.101562 80.824219 31.773438 85.246094 43.125 85.246094 C 54.472656 85.246094 65.144531 80.824219 73.171875 72.800781 C 81.195312 64.773438 85.617188 54.101562 85.617188 42.753906 C 85.617188 31.402344 81.195312 20.730469 73.171875 12.703125 Z M 84.425781 44.863281 C 84.710938 44.082031 84.933594 43.308594 85.097656 42.546875 C 85.097656 42.617188 85.097656 42.683594 85.097656 42.753906 C 85.097656 44.914062 84.921875 47.125 84.574219 49.316406 C 84.640625 47.84375 84.589844 46.355469 84.425781 44.863281 Z M 67.230469 77.085938 C 66.425781 77.648438 65.597656 78.191406 64.753906 78.699219 C 64.761719 78.664062 64.765625 78.628906 64.773438 78.59375 C 65.609375 78.109375 66.429688 77.605469 67.230469 77.085938 Z M 19.832031 76.847656 C 20.972656 77.949219 22.1875 78.941406 23.464844 79.820312 C 21.375 78.707031 19.375 77.410156 17.492188 75.957031 C 18.226562 76.300781 19.007812 76.597656 19.832031 76.847656 Z M 70.625 67.90625 C 72.652344 66.386719 74.527344 64.800781 76.199219 63.1875 C 76.167969 64.710938 75.96875 66.136719 75.609375 67.433594 C 74.171875 68.84375 72.550781 70.230469 70.792969 71.566406 C 70.863281 70.472656 70.804688 69.242188 70.625 67.90625 Z M 18.328125 11.070312 C 18.601562 10.710938 18.910156 10.351562 19.253906 9.996094 C 20.710938 9.632812 22.308594 9.449219 24.007812 9.449219 C 24.03125 9.449219 24.058594 9.449219 24.082031 9.449219 C 24.0625 9.476562 24.042969 9.503906 24.023438 9.53125 C 22.011719 9.871094 20.101562 10.386719 18.328125 11.070312 Z M 10.953125 18.773438 C 11.027344 18.191406 11.089844 17.949219 11.34375 17.203125 C 12.921875 15.820312 14.671875 14.582031 16.546875 13.507812 C 16.472656 13.769531 16.449219 13.9375 16.414062 14.308594 C 14.441406 15.648438 12.609375 17.148438 10.953125 18.773438 Z M 9.554688 40.425781 C 9.160156 42.96875 8.953125 45.535156 8.9375 48.058594 C 7.390625 47.566406 6.046875 46.90625 4.941406 46.09375 C 5.097656 43.660156 5.472656 41.191406 6.050781 38.753906 C 7.035156 39.445312 8.210938 40.003906 9.554688 40.425781 Z M 29.941406 8.101562 C 32.386719 7.070312 34.914062 6.246094 37.464844 5.652344 C 37.59375 5.917969 37.675781 6.207031 37.707031 6.519531 C 35.078125 6.832031 32.46875 7.367188 29.941406 8.101562 Z M 63.472656 48.964844 C 62.285156 46.785156 60.972656 44.5625 59.570312 42.355469 C 61.859375 40.636719 63.972656 38.839844 65.855469 37.007812 C 67.386719 39.109375 68.785156 41.253906 70.015625 43.390625 C 68.0625 45.296875 65.863281 47.171875 63.472656 48.964844 Z M 18.183594 25.265625 C 18.378906 25.273438 18.578125 25.277344 18.78125 25.277344 C 19.675781 25.277344 20.625 25.210938 21.609375 25.085938 C 21.292969 27.414062 21.097656 29.847656 21.023438 32.335938 C 19.648438 32.519531 18.320312 32.613281 17.078125 32.613281 C 16.820312 32.613281 16.566406 32.609375 16.316406 32.601562 C 16.789062 30.082031 17.417969 27.617188 18.183594 25.265625 Z M 59.132812 42.679688 C 60.539062 44.898438 61.847656 47.121094 63.03125 49.292969 C 60.621094 51.078125 58.027344 52.773438 55.316406 54.339844 C 54.179688 52.121094 52.972656 49.832031 51.722656 47.527344 C 54.320312 46.023438 56.8125 44.394531 59.132812 42.679688 Z M 48.007812 19.214844 C 46.820312 20.367188 45.488281 21.496094 44.046875 22.582031 C 42.367188 20.839844 40.675781 19.207031 39.019531 17.722656 C 40.074219 16.925781 41.042969 16.097656 41.910156 15.253906 C 43.941406 16.421875 45.992188 17.75 48.007812 19.214844 Z M 47.371094 39.757812 C 46.078125 37.515625 44.757812 35.277344 43.4375 33.097656 C 45.507812 31.902344 47.488281 30.605469 49.328125 29.246094 C 50.964844 31.214844 52.574219 33.265625 54.109375 35.351562 C 52.003906 36.90625 49.738281 38.386719 47.371094 39.757812 Z M 43.164062 32.648438 C 41.84375 30.480469 40.53125 28.371094 39.25 26.375 C 40.921875 25.402344 42.519531 24.355469 44.011719 23.257812 C 45.6875 25.019531 47.359375 26.898438 48.992188 28.839844 C 47.164062 30.183594 45.207031 31.464844 43.164062 32.648438 Z M 33.539062 29.261719 C 35.339844 28.476562 37.113281 27.589844 38.8125 26.625 C 40.09375 28.636719 41.40625 30.746094 42.710938 32.90625 C 40.625 34.09375 38.460938 35.175781 36.261719 36.128906 C 35.3125 33.796875 34.398438 31.488281 33.539062 29.261719 Z M 42.984375 33.359375 C 44.296875 35.539062 45.617188 37.78125 46.90625 40.027344 C 44.496094 41.398438 41.988281 42.648438 39.449219 43.75 C 38.421875 41.359375 37.417969 38.960938 36.460938 36.617188 C 38.6875 35.652344 40.878906 34.554688 42.984375 33.359375 Z M 43.648438 22.878906 C 42.183594 23.957031 40.609375 24.984375 38.96875 25.9375 C 37.679688 23.933594 36.414062 22.027344 35.207031 20.257812 C 36.410156 19.554688 37.5625 18.800781 38.636719 18.007812 C 40.285156 19.496094 41.972656 21.132812 43.648438 22.878906 Z M 33.351562 28.773438 C 32.5 26.550781 31.703125 24.40625 30.984375 22.398438 C 32.28125 21.832031 33.558594 21.191406 34.792969 20.492188 C 35.996094 22.273438 37.253906 24.183594 38.535156 26.183594 C 36.859375 27.136719 35.117188 28.003906 33.351562 28.773438 Z M 35.78125 36.335938 C 33.527344 37.292969 31.242188 38.117188 28.984375 38.785156 C 28.410156 36.3125 27.917969 33.851562 27.515625 31.460938 C 29.367188 30.914062 31.234375 30.242188 33.078125 29.457031 C 33.929688 31.6875 34.839844 34 35.78125 36.335938 Z M 35.980469 36.824219 C 36.9375 39.183594 37.9375 41.585938 38.953125 43.964844 C 36.34375 45.074219 33.703125 46.027344 31.089844 46.796875 C 30.359375 44.3125 29.6875 41.792969 29.101562 39.300781 C 31.386719 38.625 33.699219 37.796875 35.980469 36.824219 Z M 47.167969 40.488281 C 48.46875 42.761719 49.753906 45.0625 50.988281 47.332031 C 48.347656 48.835938 45.605469 50.207031 42.824219 51.414062 C 41.765625 49.070312 40.703125 46.65625 39.660156 44.242188 C 42.21875 43.132812 44.742188 41.871094 47.167969 40.488281 Z M 51.242188 47.800781 C 52.492188 50.109375 53.699219 52.398438 54.832031 54.617188 C 52.074219 56.1875 49.203125 57.625 46.292969 58.886719 C 45.214844 56.625 44.121094 54.273438 43.042969 51.898438 C 45.835938 50.6875 48.59375 49.308594 51.242188 47.800781 Z M 51.46875 47.058594 C 50.230469 44.792969 48.945312 42.492188 47.640625 40.21875 C 50.023438 38.839844 52.304688 37.347656 54.425781 35.78125 C 55.976562 37.90625 57.460938 40.074219 58.847656 42.234375 C 56.539062 43.9375 54.058594 45.558594 51.46875 47.058594 Z M 49.402344 28.53125 C 47.765625 26.589844 46.089844 24.71875 44.410156 22.960938 C 45.878906 21.855469 47.230469 20.699219 48.4375 19.527344 C 50.441406 21 52.425781 22.617188 54.34375 24.328125 C 52.863281 25.765625 51.203125 27.179688 49.402344 28.53125 Z M 27.429688 30.941406 C 27.039062 28.554688 26.734375 26.230469 26.53125 24.027344 C 27.859375 23.632812 29.210938 23.148438 30.546875 22.585938 C 31.261719 24.605469 32.046875 26.75 32.894531 28.972656 C 31.082031 29.742188 29.246094 30.402344 27.429688 30.941406 Z M 26.066406 24.160156 C 26.265625 26.371094 26.5625 28.695312 26.945312 31.082031 C 26.058594 31.335938 25.164062 31.5625 24.28125 31.757812 C 23.335938 31.964844 22.410156 32.136719 21.515625 32.265625 C 21.585938 29.777344 21.777344 27.34375 22.089844 25.023438 C 22.769531 24.921875 23.472656 24.792969 24.179688 24.636719 C 24.800781 24.5 25.433594 24.339844 26.066406 24.160156 Z M 21.503906 32.796875 C 22.433594 32.664062 23.398438 32.484375 24.375 32.269531 C 25.25 32.078125 26.144531 31.851562 27.03125 31.597656 C 27.429688 33.988281 27.914062 36.453125 28.480469 38.929688 C 27.371094 39.25 26.261719 39.527344 25.183594 39.765625 C 24.007812 40.027344 22.84375 40.242188 21.714844 40.40625 C 21.523438 37.847656 21.453125 35.289062 21.503906 32.796875 Z M 25.289062 40.285156 C 26.378906 40.046875 27.492188 39.761719 28.601562 39.445312 C 29.179688 41.941406 29.84375 44.460938 30.574219 46.945312 C 29.304688 47.308594 28.027344 47.632812 26.777344 47.910156 C 25.40625 48.210938 24.054688 48.457031 22.75 48.648438 C 22.300781 46.101562 21.964844 43.507812 21.757812 40.933594 C 22.902344 40.769531 24.089844 40.550781 25.289062 40.285156 Z M 39.164062 44.457031 C 40.199219 46.875 41.261719 49.289062 42.316406 51.632812 C 39.460938 52.847656 36.566406 53.890625 33.707031 54.730469 C 32.828125 52.320312 32 49.824219 31.246094 47.308594 C 33.875 46.53125 36.539062 45.574219 39.164062 44.457031 Z M 54.535156 35.035156 C 52.996094 32.953125 51.386719 30.902344 49.742188 28.9375 C 51.566406 27.570312 53.242188 26.140625 54.738281 24.683594 C 56.648438 26.417969 58.503906 28.261719 60.25 30.171875 C 58.542969 31.835938 56.621094 33.46875 54.535156 35.035156 Z M 48.363281 18.867188 C 46.347656 17.410156 44.292969 16.082031 42.253906 14.914062 C 43.097656 14.066406 43.835938 13.203125 44.453125 12.347656 C 46.78125 13.171875 49.117188 14.179688 51.398438 15.34375 C 50.554688 16.515625 49.53125 17.699219 48.363281 18.867188 Z M 37.15625 9.886719 C 37.460938 9.421875 37.707031 8.957031 37.886719 8.507812 C 40.429688 8.570312 43.011719 8.839844 45.570312 9.304688 C 45.246094 10.109375 44.789062 10.941406 44.214844 11.777344 C 41.855469 10.96875 39.484375 10.332031 37.15625 9.886719 Z M 43.9375 12.164062 C 43.335938 12.992188 42.613281 13.828125 41.789062 14.652344 C 39.734375 13.5 37.683594 12.503906 35.6875 11.6875 C 36.140625 11.222656 36.542969 10.746094 36.886719 10.277344 C 39.207031 10.71875 41.578125 11.351562 43.9375 12.164062 Z M 41.445312 14.988281 C 40.597656 15.800781 39.652344 16.605469 38.628906 17.375 C 36.964844 15.898438 35.320312 14.566406 33.742188 13.402344 C 34.320312 12.957031 34.863281 12.496094 35.347656 12.023438 C 37.34375 12.835938 39.390625 13.832031 41.445312 14.988281 Z M 34.914062 19.832031 C 33.707031 18.074219 32.535156 16.433594 31.433594 14.949219 C 32.113281 14.550781 32.761719 14.125 33.371094 13.679688 C 34.945312 14.84375 36.585938 16.179688 38.246094 17.660156 C 37.199219 18.425781 36.082031 19.15625 34.914062 19.832031 Z M 30.8125 21.914062 C 30.09375 19.902344 29.445312 18 28.882812 16.253906 C 29.617188 15.933594 30.34375 15.570312 31.046875 15.175781 C 32.136719 16.65625 33.296875 18.300781 34.503906 20.070312 C 33.308594 20.746094 32.066406 21.363281 30.8125 21.914062 Z M 26.484375 23.507812 C 26.289062 21.300781 26.195312 19.195312 26.195312 17.246094 C 26.953125 17.019531 27.714844 16.746094 28.472656 16.433594 C 29.027344 18.179688 29.664062 20.085938 30.375 22.101562 C 29.082031 22.648438 27.773438 23.121094 26.484375 23.507812 Z M 25.753906 17.375 C 25.746094 19.328125 25.835938 21.433594 26.023438 23.640625 C 25.378906 23.824219 24.730469 23.988281 24.097656 24.128906 C 23.449219 24.273438 22.796875 24.394531 22.160156 24.488281 C 22.496094 22.160156 22.953125 19.929688 23.519531 17.851562 C 23.917969 17.792969 24.324219 17.71875 24.738281 17.625 C 25.074219 17.554688 25.414062 17.46875 25.753906 17.375 Z M 21.683594 24.554688 C 20.683594 24.6875 19.722656 24.753906 18.816406 24.753906 C 18.660156 24.753906 18.507812 24.753906 18.355469 24.75 C 19.152344 22.382812 20.101562 20.117188 21.167969 18.007812 C 21.273438 18.011719 21.382812 18.011719 21.492188 18.011719 C 21.984375 18.011719 22.503906 17.980469 23.046875 17.914062 C 22.476562 19.996094 22.019531 22.226562 21.683594 24.554688 Z M 17.882812 24.730469 C 16.914062 24.675781 16.023438 24.542969 15.222656 24.328125 C 16.402344 22.011719 17.753906 19.796875 19.238281 17.742188 C 19.679688 17.859375 20.171875 17.941406 20.699219 17.984375 C 19.628906 20.097656 18.679688 22.367188 17.882812 24.730469 Z M 12.863281 23.273438 C 14.324219 21.089844 15.976562 19.011719 17.769531 17.09375 C 18.070312 17.296875 18.417969 17.46875 18.804688 17.605469 C 17.320312 19.667969 15.96875 21.882812 14.789062 24.199219 C 14.050781 23.960938 13.402344 23.652344 12.863281 23.273438 Z M 14.980469 24.808594 C 15.804688 25.039062 16.71875 25.183594 17.710938 25.246094 C 16.945312 27.597656 16.3125 30.0625 15.835938 32.578125 C 14.453125 32.507812 13.179688 32.308594 12.050781 31.992188 C 12.855469 29.523438 13.839844 27.109375 14.980469 24.808594 Z M 17.058594 33.136719 C 18.304688 33.136719 19.632812 33.046875 21.007812 32.867188 C 20.953125 35.359375 21.019531 37.917969 21.207031 40.476562 C 19.515625 40.703125 17.878906 40.816406 16.347656 40.816406 C 16.003906 40.816406 15.664062 40.8125 15.328125 40.800781 C 15.46875 38.21875 15.769531 35.640625 16.21875 33.125 C 16.496094 33.132812 16.773438 33.136719 17.058594 33.136719 Z M 42.535156 52.117188 C 43.621094 54.515625 44.710938 56.863281 45.78125 59.105469 C 42.792969 60.378906 39.765625 61.46875 36.777344 62.347656 C 35.765625 60.078125 34.796875 57.683594 33.890625 55.230469 C 36.757812 54.382812 39.664062 53.335938 42.535156 52.117188 Z M 55.070312 55.089844 C 55.605469 56.144531 56.128906 57.191406 56.640625 58.226562 C 57.210938 59.386719 57.75 60.503906 58.257812 61.582031 C 55.5 63.152344 52.628906 64.585938 49.71875 65.847656 C 49.179688 64.789062 48.625 63.679688 48.054688 62.519531 C 47.542969 61.484375 47.03125 60.429688 46.519531 59.359375 C 49.433594 58.097656 52.308594 56.664062 55.070312 55.089844 Z M 63.285156 49.761719 C 63.839844 50.800781 64.375 51.839844 64.875 52.851562 C 65.441406 54.003906 65.976562 55.148438 66.460938 56.253906 C 64.050781 58.035156 61.457031 59.734375 58.746094 61.300781 C 58.242188 60.230469 57.703125 59.121094 57.136719 57.96875 C 56.625 56.925781 56.097656 55.871094 55.554688 54.808594 C 58.269531 53.242188 60.867188 51.542969 63.285156 49.761719 Z M 59.28125 41.910156 C 57.894531 39.753906 56.40625 37.585938 54.851562 35.464844 C 56.953125 33.886719 58.886719 32.242188 60.609375 30.566406 C 62.359375 32.503906 64.019531 34.527344 65.539062 36.578125 C 63.671875 38.402344 61.566406 40.195312 59.28125 41.910156 Z M 54.707031 23.972656 C 52.789062 22.261719 50.800781 20.652344 48.789062 19.179688 C 49.976562 17.992188 51.015625 16.785156 51.875 15.585938 C 54.140625 16.765625 56.367188 18.105469 58.496094 19.566406 C 57.441406 21.035156 56.167969 22.515625 54.707031 23.972656 Z M 44.726562 11.957031 C 45.3125 11.09375 45.773438 10.234375 46.101562 9.402344 C 48.625 9.886719 51.144531 10.566406 53.59375 11.425781 C 53.148438 12.570312 52.503906 13.753906 51.679688 14.949219 C 49.398438 13.792969 47.058594 12.785156 44.726562 11.957031 Z M 14.546875 24.679688 C 13.402344 26.980469 12.414062 29.394531 11.605469 31.863281 C 10.542969 31.523438 9.617188 31.074219 8.851562 30.523438 C 9.898438 28.171875 11.148438 25.886719 12.566406 23.71875 C 13.128906 24.109375 13.792969 24.429688 14.546875 24.679688 Z M 15.738281 33.101562 C 15.285156 35.617188 14.984375 38.199219 14.839844 40.777344 C 13.105469 40.6875 11.511719 40.4375 10.097656 40.039062 C 10.507812 37.5 11.113281 34.964844 11.886719 32.5 C 13.042969 32.824219 14.335938 33.027344 15.738281 33.101562 Z M 26.894531 48.429688 C 28.15625 48.152344 29.445312 47.824219 30.726562 47.457031 C 31.476562 49.976562 32.300781 52.472656 33.175781 54.886719 C 31.789062 55.28125 30.394531 55.636719 29.03125 55.9375 C 27.53125 56.265625 26.042969 56.539062 24.605469 56.746094 C 23.90625 54.292969 23.316406 51.75 22.84375 49.171875 C 24.15625 48.984375 25.515625 48.730469 26.894531 48.429688 Z M 36.992188 62.832031 C 39.992188 61.945312 43.019531 60.855469 46.007812 59.582031 C 46.519531 60.65625 47.035156 61.71875 47.550781 62.757812 C 48.117188 63.910156 48.667969 65.015625 49.207031 66.070312 C 46.21875 67.339844 43.191406 68.429688 40.199219 69.308594 C 39.625 68.257812 39.046875 67.140625 38.476562 65.976562 C 37.972656 64.960938 37.476562 63.902344 36.992188 62.832031 Z M 63.726562 49.429688 C 66.121094 47.636719 68.320312 45.765625 70.28125 43.859375 C 70.847656 44.863281 71.386719 45.882812 71.886719 46.894531 C 72.457031 48.054688 72.980469 49.214844 73.441406 50.347656 C 71.492188 52.253906 69.296875 54.125 66.910156 55.917969 C 66.433594 54.835938 65.910156 53.714844 65.355469 52.585938 C 64.84375 51.550781 64.296875 50.488281 63.726562 49.429688 Z M 70.40625 43 C 69.171875 40.863281 67.769531 38.722656 66.238281 36.632812 C 68.105469 34.777344 69.726562 32.894531 71.066406 31.027344 C 72.691406 33.003906 74.15625 35.066406 75.417969 37.15625 C 74.03125 39.101562 72.347656 41.066406 70.40625 43 Z M 65.921875 36.203125 C 64.398438 34.152344 62.738281 32.136719 60.980469 30.199219 C 62.6875 28.5 64.175781 26.773438 65.402344 25.0625 C 67.316406 26.816406 69.105469 28.683594 70.722656 30.609375 C 69.390625 32.472656 67.777344 34.351562 65.921875 36.203125 Z M 60.621094 29.804688 C 58.875 27.898438 57.019531 26.058594 55.101562 24.328125 C 56.578125 22.851562 57.867188 21.351562 58.929688 19.871094 C 61.058594 21.355469 63.097656 22.980469 65.007812 24.703125 C 63.792969 26.398438 62.320312 28.113281 60.621094 29.804688 Z M 45.730469 8.875 C 43.171875 8.414062 40.585938 8.144531 38.039062 8.082031 C 38.167969 7.664062 38.242188 7.261719 38.25 6.882812 C 39.964844 6.699219 41.710938 6.605469 43.4375 6.605469 C 44.335938 6.605469 45.246094 6.632812 46.144531 6.679688 C 46.136719 7.367188 45.996094 8.105469 45.730469 8.875 Z M 29.820312 8.589844 C 29.820312 8.578125 29.820312 8.570312 29.820312 8.5625 C 32.390625 7.804688 35.046875 7.261719 37.714844 6.945312 C 37.699219 7.296875 37.625 7.675781 37.492188 8.070312 C 37.261719 8.066406 37.027344 8.066406 36.796875 8.066406 C 34.4375 8.066406 32.09375 8.242188 29.820312 8.589844 Z M 37.328125 8.496094 C 37.144531 8.917969 36.90625 9.351562 36.605469 9.785156 C 34.242188 9.363281 31.902344 9.136719 29.648438 9.105469 C 29.664062 9.078125 29.675781 9.050781 29.6875 9.023438 C 31.964844 8.671875 34.316406 8.492188 36.683594 8.492188 C 36.898438 8.492188 37.113281 8.492188 37.328125 8.496094 Z M 36.328125 10.175781 C 35.996094 10.613281 35.613281 11.050781 35.179688 11.488281 C 33.167969 10.691406 31.183594 10.074219 29.28125 9.652344 C 29.320312 9.605469 29.355469 9.5625 29.390625 9.515625 C 31.636719 9.535156 33.96875 9.757812 36.328125 10.175781 Z M 34.835938 11.820312 C 34.375 12.257812 33.867188 12.683594 33.320312 13.097656 C 31.734375 11.953125 30.195312 10.976562 28.742188 10.183594 C 28.8125 10.125 28.882812 10.0625 28.949219 10 C 30.84375 10.414062 32.820312 11.027344 34.835938 11.820312 Z M 32.949219 13.371094 C 32.375 13.789062 31.769531 14.183594 31.136719 14.550781 C 30.042969 13.089844 29.011719 11.785156 28.074219 10.667969 C 28.179688 10.597656 28.28125 10.53125 28.382812 10.460938 C 29.828125 11.246094 31.363281 12.222656 32.949219 13.371094 Z M 28.730469 15.78125 C 28.179688 14.046875 27.707031 12.464844 27.332031 11.066406 C 27.457031 11.007812 27.585938 10.945312 27.707031 10.878906 C 28.636719 11.996094 29.660156 13.304688 30.75 14.773438 C 30.097656 15.140625 29.421875 15.476562 28.730469 15.78125 Z M 26.199219 16.726562 C 26.21875 14.78125 26.339844 12.980469 26.5625 11.367188 C 26.6875 11.324219 26.816406 11.28125 26.945312 11.230469 C 27.316406 12.636719 27.777344 14.222656 28.320312 15.960938 C 27.617188 16.253906 26.90625 16.511719 26.199219 16.726562 Z M 26.128906 11.484375 C 25.90625 13.109375 25.78125 14.914062 25.757812 16.859375 C 25.394531 16.960938 25.03125 17.050781 24.664062 17.132812 C 24.332031 17.207031 23.996094 17.269531 23.667969 17.320312 C 24.265625 15.242188 24.984375 13.300781 25.808594 11.546875 C 25.894531 11.535156 25.984375 11.515625 26.074219 11.496094 C 26.089844 11.492188 26.109375 11.488281 26.128906 11.484375 Z M 23.195312 17.390625 C 22.617188 17.464844 22.0625 17.503906 21.542969 17.503906 C 21.503906 17.503906 21.46875 17.503906 21.429688 17.503906 C 22.539062 15.375 23.789062 13.394531 25.144531 11.601562 C 25.144531 11.601562 25.273438 11.601562 25.328125 11.597656 C 24.507812 13.363281 23.792969 15.308594 23.195312 17.390625 Z M 20.953125 17.488281 C 20.453125 17.457031 19.988281 17.390625 19.566406 17.289062 C 21.101562 15.210938 22.792969 13.28125 24.597656 11.542969 C 24.621094 11.550781 24.640625 11.554688 24.664062 11.558594 C 23.308594 13.363281 22.0625 15.355469 20.953125 17.488281 Z M 19.128906 17.164062 C 18.757812 17.042969 18.425781 16.886719 18.140625 16.703125 C 20 14.761719 22.023438 12.972656 24.164062 11.382812 C 24.167969 11.382812 24.167969 11.386719 24.171875 11.386719 C 22.363281 13.136719 20.667969 15.078125 19.128906 17.164062 Z M 11.445312 32.367188 C 10.664062 34.828125 10.058594 37.363281 9.636719 39.898438 C 8.300781 39.472656 7.140625 38.910156 6.183594 38.210938 C 6.796875 35.777344 7.621094 33.359375 8.632812 31.015625 C 9.425781 31.570312 10.367188 32.023438 11.445312 32.367188 Z M 15.304688 41.328125 C 15.644531 41.339844 15.992188 41.347656 16.34375 41.347656 C 17.886719 41.347656 19.539062 41.230469 21.25 41.003906 C 21.453125 43.582031 21.78125 46.171875 22.226562 48.71875 C 20.28125 48.980469 18.402344 49.113281 16.644531 49.113281 C 16.230469 49.113281 15.820312 49.105469 15.421875 49.089844 C 15.222656 46.53125 15.183594 43.921875 15.304688 41.328125 Z M 16.660156 49.644531 C 18.445312 49.644531 20.347656 49.511719 22.320312 49.246094 C 22.785156 51.820312 23.375 54.367188 24.070312 56.820312 C 21.949219 57.105469 19.90625 57.246094 17.992188 57.246094 C 17.523438 57.246094 17.066406 57.238281 16.617188 57.222656 C 16.074219 54.765625 15.6875 52.210938 15.464844 49.625 C 15.855469 49.636719 16.257812 49.644531 16.660156 49.644531 Z M 29.160156 56.449219 C 30.535156 56.148438 31.945312 55.789062 33.359375 55.382812 C 34.261719 57.839844 35.230469 60.234375 36.238281 62.503906 C 34.792969 62.914062 33.34375 63.285156 31.921875 63.597656 C 30.34375 63.945312 28.78125 64.230469 27.277344 64.445312 C 26.335938 62.171875 25.484375 59.753906 24.753906 57.257812 C 26.1875 57.050781 27.664062 56.78125 29.160156 56.449219 Z M 32.054688 64.105469 C 33.507812 63.785156 34.984375 63.410156 36.453125 62.988281 C 36.949219 64.085938 37.457031 65.167969 37.964844 66.199219 C 38.519531 67.328125 39.085938 68.425781 39.65625 69.464844 C 38.222656 69.875 36.78125 70.242188 35.363281 70.554688 C 33.785156 70.902344 32.21875 71.1875 30.703125 71.40625 C 30.085938 70.347656 29.484375 69.226562 28.914062 68.066406 C 28.417969 67.054688 27.9375 66.003906 27.488281 64.941406 C 28.972656 64.726562 30.507812 64.445312 32.054688 64.105469 Z M 49.441406 66.527344 C 50.429688 68.460938 51.378906 70.253906 52.273438 71.871094 C 49.414062 73.085938 46.515625 74.128906 43.65625 74.964844 C 42.589844 73.421875 41.511719 71.675781 40.453125 69.769531 C 43.4375 68.886719 46.457031 67.800781 49.441406 66.527344 Z M 58.480469 62.046875 C 59.402344 64.011719 60.234375 65.867188 60.957031 67.566406 C 58.3125 69.070312 55.5625 70.445312 52.78125 71.648438 C 51.890625 70.03125 50.941406 68.234375 49.953125 66.308594 C 52.855469 65.046875 55.722656 63.617188 58.480469 62.046875 Z M 66.667969 56.734375 C 67.53125 58.742188 68.253906 60.664062 68.816406 62.460938 C 66.507812 64.164062 64.027344 65.789062 61.4375 67.289062 C 60.714844 65.585938 59.886719 63.730469 58.964844 61.769531 C 61.671875 60.207031 64.261719 58.515625 66.667969 56.734375 Z M 70.675781 43.46875 C 72.617188 41.542969 74.308594 39.582031 75.707031 37.640625 C 76.28125 38.621094 76.820312 39.621094 77.304688 40.605469 C 77.878906 41.773438 78.394531 42.953125 78.839844 44.117188 C 77.457031 46.058594 75.78125 48.019531 73.847656 49.945312 C 73.398438 48.847656 72.890625 47.734375 72.34375 46.621094 C 71.828125 45.578125 71.269531 44.515625 70.675781 43.46875 Z M 61.152344 14.796875 C 60.601562 16.214844 59.804688 17.683594 58.78125 19.164062 C 56.648438 17.703125 54.417969 16.367188 52.152344 15.191406 C 52.984375 13.976562 53.640625 12.769531 54.09375 11.601562 C 56.523438 12.480469 58.90625 13.539062 61.171875 14.75 Z M 43.527344 6.171875 C 41.765625 6.171875 39.984375 6.265625 38.238281 6.457031 C 38.203125 6.128906 38.121094 5.820312 37.992188 5.53125 C 40.523438 4.972656 43.09375 4.632812 45.640625 4.519531 C 45.917969 5.039062 46.082031 5.617188 46.128906 6.238281 C 45.265625 6.195312 44.390625 6.171875 43.527344 6.171875 Z M 17.796875 16.449219 C 17.5625 16.246094 17.371094 16.015625 17.226562 15.761719 C 19.230469 14.085938 21.40625 12.558594 23.691406 11.226562 C 21.601562 12.792969 19.617188 14.550781 17.796875 16.449219 Z M 16.8125 16.109375 C 16.976562 16.375 17.183594 16.617188 17.429688 16.835938 C 15.636719 18.75 13.980469 20.824219 12.511719 23.007812 C 12.027344 22.609375 11.644531 22.148438 11.375 21.632812 C 13.011719 19.65625 14.839844 17.800781 16.8125 16.109375 Z M 14.914062 49.066406 C 12.902344 48.964844 11.054688 48.671875 9.421875 48.203125 C 9.429688 45.679688 9.628906 43.109375 10.015625 40.5625 C 11.449219 40.964844 13.058594 41.214844 14.8125 41.308594 C 14.6875 43.898438 14.722656 46.507812 14.914062 49.066406 Z M 18.023438 57.773438 C 19.972656 57.773438 22.054688 57.625 24.214844 57.332031 C 24.941406 59.824219 25.785156 62.242188 26.722656 64.523438 C 24.519531 64.816406 22.394531 64.964844 20.402344 64.964844 C 19.90625 64.964844 19.417969 64.957031 18.941406 64.9375 C 18.050781 62.660156 17.308594 60.246094 16.734375 57.75 C 17.15625 57.765625 17.585938 57.773438 18.023438 57.773438 Z M 35.503906 71.046875 C 36.949219 70.726562 38.429688 70.351562 39.910156 69.925781 C 40.964844 71.828125 42.039062 73.574219 43.109375 75.125 C 41.738281 75.515625 40.371094 75.863281 39.035156 76.15625 C 37.515625 76.492188 36.007812 76.765625 34.558594 76.972656 C 33.3125 75.472656 32.109375 73.761719 30.984375 71.878906 C 32.457031 71.664062 33.976562 71.382812 35.503906 71.046875 Z M 52.511719 72.300781 C 53.359375 73.824219 54.15625 75.1875 54.886719 76.363281 C 52.273438 77.476562 49.628906 78.425781 47.015625 79.191406 C 46.007812 78.121094 44.980469 76.839844 43.953125 75.390625 C 46.796875 74.550781 49.671875 73.511719 52.511719 72.300781 Z M 61.148438 68.023438 C 61.820312 69.628906 62.398438 71.101562 62.863281 72.414062 C 60.445312 73.789062 57.933594 75.046875 55.386719 76.148438 C 54.660156 74.96875 53.867188 73.605469 53.023438 72.082031 C 55.789062 70.882812 58.519531 69.519531 61.148438 68.023438 Z M 73.644531 50.859375 C 74.449219 52.898438 75.074219 54.898438 75.5 56.800781 C 73.640625 58.621094 71.546875 60.410156 69.269531 62.121094 C 68.703125 60.324219 67.980469 58.402344 67.117188 56.402344 C 69.5 54.617188 71.691406 52.753906 73.644531 50.859375 Z M 73.988281 24.722656 C 73.296875 26.492188 72.304688 28.328125 71.027344 30.171875 C 69.402344 28.25 67.613281 26.390625 65.699219 24.640625 C 66.90625 22.902344 67.847656 21.171875 68.496094 19.503906 C 70.503906 21.066406 72.367188 22.769531 74.042969 24.574219 Z M 68.023438 19.273438 C 67.390625 20.898438 66.476562 22.585938 65.300781 24.28125 C 63.390625 22.566406 61.34375 20.945312 59.21875 19.464844 C 60.261719 17.953125 61.074219 16.453125 61.640625 15.003906 C 63.898438 16.242188 66.058594 17.640625 68.0625 19.167969 Z M 53.757812 10.988281 C 51.304688 10.132812 48.78125 9.457031 46.257812 8.972656 C 46.527344 8.183594 46.667969 7.425781 46.675781 6.714844 C 49.257812 6.886719 51.832031 7.265625 54.335938 7.847656 C 54.339844 8.824219 54.144531 9.878906 53.757812 10.988281 Z M 46.667969 6.273438 C 46.625 5.636719 46.472656 5.039062 46.210938 4.496094 C 46.667969 4.480469 47.125 4.472656 47.582031 4.472656 C 49.605469 4.472656 51.636719 4.621094 53.609375 4.90625 C 54.019531 5.652344 54.257812 6.480469 54.320312 7.378906 C 51.816406 6.808594 49.242188 6.4375 46.667969 6.273438 Z M 17.046875 15.363281 C 16.953125 15.089844 16.902344 14.796875 16.90625 14.484375 C 18.949219 13.113281 21.160156 11.898438 23.480469 10.875 C 21.207031 12.195312 19.046875 13.703125 17.046875 15.363281 Z M 12.214844 23.453125 C 10.792969 25.617188 9.539062 27.898438 8.480469 30.242188 C 7.78125 29.671875 7.234375 29.003906 6.855469 28.257812 C 8.046875 26.101562 9.445312 24.019531 11.019531 22.070312 C 11.316406 22.585938 11.71875 23.050781 12.214844 23.453125 Z M 14.957031 49.601562 C 15.171875 52.1875 15.554688 54.738281 16.089844 57.199219 C 13.886719 57.082031 11.867188 56.761719 10.078125 56.246094 C 9.664062 53.816406 9.445312 51.296875 9.421875 48.75 C 11.078125 49.214844 12.9375 49.5 14.957031 49.601562 Z M 16.207031 57.730469 C 16.773438 60.21875 17.503906 62.632812 18.382812 64.910156 C 16.089844 64.789062 13.984375 64.453125 12.121094 63.910156 C 11.28125 61.65625 10.625 59.265625 10.175781 56.808594 C 11.976562 57.3125 14.003906 57.621094 16.207031 57.730469 Z M 68.96875 62.957031 C 69.480469 64.664062 69.855469 66.265625 70.078125 67.726562 C 67.972656 69.285156 65.707031 70.769531 63.339844 72.140625 C 62.875 70.832031 62.300781 69.355469 61.628906 67.746094 C 64.207031 66.257812 66.671875 64.648438 68.96875 62.957031 Z M 79.050781 44.679688 C 79.804688 46.753906 80.347656 48.820312 80.667969 50.832031 C 79.359375 52.675781 77.765625 54.539062 75.929688 56.375 C 75.492188 54.476562 74.859375 52.484375 74.054688 50.457031 C 75.980469 48.546875 77.660156 46.605469 79.050781 44.679688 Z M 82.210938 38.023438 C 81.503906 39.84375 80.488281 41.722656 79.1875 43.617188 C 78.761719 42.527344 78.273438 41.421875 77.734375 40.328125 C 77.21875 39.273438 76.644531 38.21875 76.03125 37.183594 C 77.394531 35.222656 78.460938 33.277344 79.207031 31.394531 C 79.769531 32.324219 80.292969 33.28125 80.765625 34.242188 C 81.34375 35.417969 81.859375 36.621094 82.292969 37.816406 Z M 78.808594 31.042969 C 78.09375 32.878906 77.0625 34.78125 75.738281 36.699219 C 74.46875 34.613281 73.003906 32.558594 71.375 30.589844 C 72.691406 28.699219 73.71875 26.816406 74.433594 24.996094 C 76.109375 26.847656 77.601562 28.816406 78.878906 30.855469 Z M 61.339844 14.296875 C 59.066406 13.089844 56.6875 12.035156 54.257812 11.164062 C 54.648438 10.046875 54.851562 8.972656 54.863281 7.972656 C 57.339844 8.574219 59.757812 9.378906 62.054688 10.359375 C 62.066406 11.582031 61.828125 12.90625 61.339844 14.296875 Z M 29.863281 7.691406 C 32.050781 6.472656 34.316406 5.457031 36.605469 4.667969 C 36.855469 4.84375 37.066406 5.046875 37.234375 5.273438 C 34.738281 5.867188 32.261719 6.679688 29.863281 7.691406 Z M 29.410156 7.476562 C 31.273438 6.117188 33.214844 4.957031 35.191406 4.03125 C 35.539062 4.125 35.855469 4.242188 36.136719 4.386719 C 33.847656 5.203125 31.589844 6.242188 29.410156 7.476562 Z M 28.824219 7.402344 C 28.816406 7.398438 28.804688 7.398438 28.796875 7.398438 C 30.222656 5.980469 31.734375 4.765625 33.296875 3.785156 C 33.726562 3.792969 34.136719 3.828125 34.519531 3.890625 C 32.566406 4.847656 30.65625 6.027344 28.824219 7.402344 Z M 28.257812 7.355469 C 28.210938 7.355469 28.164062 7.359375 28.113281 7.359375 C 28.996094 6.019531 29.964844 4.878906 30.992188 3.957031 C 31.515625 3.875 32.019531 3.820312 32.507812 3.796875 C 31.03125 4.785156 29.605469 5.980469 28.257812 7.355469 Z M 23.148438 10.574219 C 20.96875 11.542969 18.890625 12.671875 16.957031 13.945312 C 16.992188 13.671875 17.03125 13.53125 17.152344 13.171875 C 17.367188 13.054688 17.578125 12.941406 17.78125 12.835938 C 19.824219 11.777344 21.722656 11.046875 23.148438 10.574219 Z M 16.410156 14.820312 C 16.433594 15.136719 16.503906 15.441406 16.621094 15.71875 C 14.644531 17.398438 12.816406 19.234375 11.179688 21.195312 C 10.972656 20.660156 10.875 20.070312 10.886719 19.445312 C 12.550781 17.761719 14.410156 16.207031 16.410156 14.820312 Z M 8.261719 30.738281 C 7.242188 33.074219 6.410156 35.480469 5.789062 37.90625 C 4.910156 37.191406 4.226562 36.355469 3.757812 35.414062 C 4.484375 33.15625 5.425781 30.929688 6.570312 28.789062 C 6.980469 29.523438 7.550781 30.175781 8.261719 30.738281 Z M 4.910156 46.695312 C 6.039062 47.484375 7.394531 48.128906 8.9375 48.605469 C 8.953125 51.148438 9.160156 53.664062 9.558594 56.085938 C 7.871094 55.546875 6.40625 54.824219 5.199219 53.9375 C 4.886719 51.578125 4.789062 49.144531 4.910156 46.695312 Z M 20.453125 65.480469 C 22.496094 65.480469 24.675781 65.328125 26.933594 65.019531 C 27.398438 66.125 27.894531 67.214844 28.410156 68.265625 C 28.960938 69.378906 29.539062 70.460938 30.128906 71.484375 C 27.941406 71.773438 25.832031 71.921875 23.851562 71.921875 C 23.347656 71.921875 22.855469 71.910156 22.367188 71.894531 C 21.714844 70.828125 21.09375 69.699219 20.523438 68.535156 C 20.035156 67.542969 19.570312 66.511719 19.148438 65.460938 C 19.574219 65.472656 20.011719 65.480469 20.453125 65.480469 Z M 23.914062 72.421875 C 25.960938 72.421875 28.144531 72.265625 30.410156 71.957031 C 31.523438 73.835938 32.714844 75.546875 33.953125 77.054688 C 31.886719 77.328125 29.890625 77.464844 28.023438 77.464844 C 27.53125 77.464844 27.050781 77.453125 26.578125 77.4375 C 25.179688 75.957031 23.871094 74.265625 22.6875 72.402344 C 23.089844 72.414062 23.5 72.421875 23.914062 72.421875 Z M 34.929688 77.410156 C 36.3125 77.203125 37.738281 76.941406 39.179688 76.625 C 40.574219 76.316406 41.992188 75.957031 43.402344 75.550781 C 44.421875 76.996094 45.445312 78.273438 46.449219 79.355469 C 45.226562 79.703125 43.996094 80.015625 42.789062 80.277344 C 41.394531 80.585938 40.007812 80.839844 38.671875 81.03125 C 37.394531 80.027344 36.136719 78.8125 34.929688 77.410156 Z M 47.378906 79.574219 C 49.957031 78.808594 52.566406 77.867188 55.140625 76.769531 C 55.816406 77.847656 56.441406 78.761719 56.992188 79.503906 C 54.734375 80.460938 52.441406 81.28125 50.175781 81.945312 C 49.277344 81.351562 48.335938 80.554688 47.378906 79.574219 Z M 57.484375 79.292969 C 56.9375 78.558594 56.320312 77.640625 55.640625 76.554688 C 58.15625 75.460938 60.636719 74.222656 63.023438 72.867188 C 63.445312 74.078125 63.765625 75.144531 63.980469 76.042969 C 61.882812 77.238281 59.699219 78.332031 57.484375 79.292969 Z M 70.546875 67.378906 C 70.3125 65.910156 69.9375 64.3125 69.421875 62.617188 C 71.679688 60.925781 73.761719 59.160156 75.621094 57.359375 C 75.996094 59.171875 76.191406 60.914062 76.203125 62.539062 C 74.515625 64.191406 72.613281 65.820312 70.546875 67.378906 Z M 83.886719 45.015625 C 83.222656 46.722656 82.273438 48.484375 81.066406 50.261719 C 80.71875 48.269531 80.160156 46.226562 79.402344 44.183594 C 80.738281 42.265625 81.792969 40.359375 82.535156 38.511719 C 83.238281 40.597656 83.722656 42.707031 83.96875 44.796875 Z M 74.234375 24.058594 C 72.550781 22.265625 70.683594 20.574219 68.675781 19.023438 C 69.25 17.425781 69.550781 15.894531 69.566406 14.46875 C 71.578125 15.855469 73.441406 17.402344 75.117188 19.078125 C 75.144531 20.625 74.847656 22.300781 74.234375 24.058594 Z M 68.242188 18.6875 C 66.230469 17.171875 64.070312 15.777344 61.808594 14.546875 C 62.304688 13.15625 62.5625 11.824219 62.570312 10.582031 C 64.855469 11.589844 67.035156 12.78125 69.058594 14.128906 C 69.082031 15.546875 68.804688 17.078125 68.242188 18.6875 Z M 54.851562 7.503906 C 54.804688 6.601562 54.59375 5.761719 54.222656 5 C 56.597656 5.378906 58.921875 5.96875 61.136719 6.753906 C 61.65625 7.683594 61.957031 8.722656 62.035156 9.851562 C 59.734375 8.882812 57.320312 8.09375 54.851562 7.503906 Z M 47.621094 4.039062 C 47.074219 4.039062 46.527344 4.050781 45.976562 4.070312 C 45.683594 3.59375 45.300781 3.167969 44.832031 2.792969 C 46.152344 2.644531 47.476562 2.570312 48.78125 2.570312 C 49.699219 2.570312 50.621094 2.609375 51.527344 2.679688 C 52.261719 3.179688 52.859375 3.761719 53.3125 4.421875 C 51.445312 4.167969 49.53125 4.039062 47.621094 4.039062 Z M 45.382812 4.097656 C 42.847656 4.226562 40.292969 4.578125 37.78125 5.144531 C 37.621094 4.898438 37.417969 4.675781 37.179688 4.472656 C 39.472656 3.71875 41.8125 3.183594 44.132812 2.878906 C 44.644531 3.226562 45.0625 3.636719 45.382812 4.097656 Z M 30.222656 4.097656 C 29.28125 5.027344 28.394531 6.140625 27.582031 7.425781 C 27.523438 7.4375 27.464844 7.449219 27.40625 7.460938 C 27.363281 7.472656 27.320312 7.480469 27.277344 7.492188 C 27.574219 6.320312 27.953125 5.335938 28.410156 4.5625 C 28.925781 4.40625 29.445312 4.269531 29.957031 4.15625 C 30.046875 4.136719 30.136719 4.117188 30.222656 4.097656 Z M 26.820312 7.625 C 26.6875 7.667969 26.558594 7.714844 26.425781 7.769531 C 26.164062 6.835938 25.988281 6.074219 25.898438 5.5 C 26.535156 5.222656 27.175781 4.972656 27.8125 4.753906 C 27.414062 5.542969 27.078125 6.503906 26.820312 7.625 Z M 21.617188 7.953125 C 22.121094 7.589844 22.648438 7.238281 23.199219 6.90625 C 23.789062 7.207031 24.488281 7.703125 25.277344 8.371094 C 25.179688 8.4375 25.082031 8.507812 24.988281 8.578125 C 23.777344 8.210938 22.644531 8.003906 21.617188 7.953125 Z M 23.082031 10.125 C 21.625 10.601562 19.675781 11.347656 17.578125 12.4375 C 17.527344 12.460938 17.476562 12.488281 17.429688 12.515625 C 17.570312 12.210938 17.652344 12.070312 17.886719 11.699219 C 19.5 11.027344 21.242188 10.5 23.082031 10.125 Z M 6.632812 27.757812 C 6.332031 26.996094 6.195312 26.15625 6.21875 25.261719 C 7.421875 23.382812 8.832031 21.59375 10.410156 19.9375 C 10.441406 20.546875 10.574219 21.117188 10.808594 21.644531 C 9.234375 23.570312 7.832031 25.625 6.632812 27.757812 Z M 5.652344 38.457031 C 5.0625 40.878906 4.675781 43.332031 4.503906 45.753906 C 3.492188 44.925781 2.707031 43.957031 2.171875 42.871094 C 2.414062 40.597656 2.878906 38.3125 3.554688 36.070312 C 4.066406 36.96875 4.769531 37.769531 5.652344 38.457031 Z M 9.65625 56.65625 C 10.089844 59.105469 10.726562 61.484375 11.542969 63.734375 C 9.800781 63.171875 8.285156 62.417969 7.039062 61.496094 C 6.242188 59.292969 5.65625 56.980469 5.296875 54.605469 C 6.523438 55.453125 7.988281 56.140625 9.65625 56.65625 Z M 18.589844 65.4375 C 19.035156 66.558594 19.527344 67.65625 20.042969 68.707031 C 20.582031 69.804688 21.160156 70.863281 21.765625 71.863281 C 19.492188 71.738281 17.402344 71.402344 15.554688 70.859375 C 14.875 69.792969 14.234375 68.652344 13.652344 67.472656 C 13.179688 66.507812 12.738281 65.507812 12.34375 64.492188 C 14.210938 65.011719 16.3125 65.328125 18.589844 65.4375 Z M 28.089844 77.941406 C 30.050781 77.941406 32.148438 77.789062 34.320312 77.496094 C 35.503906 78.886719 36.738281 80.105469 37.996094 81.121094 C 36.152344 81.359375 34.371094 81.476562 32.703125 81.476562 C 32.246094 81.476562 31.796875 81.46875 31.359375 81.449219 C 29.851562 80.476562 28.40625 79.292969 27.050781 77.925781 C 27.390625 77.933594 27.738281 77.941406 28.089844 77.941406 Z M 42.933594 80.726562 C 44.210938 80.445312 45.515625 80.113281 46.8125 79.738281 C 47.746094 80.707031 48.667969 81.507812 49.558594 82.125 C 48.542969 82.410156 47.519531 82.667969 46.515625 82.886719 C 45.292969 83.15625 44.078125 83.378906 42.910156 83.542969 C 41.664062 83.039062 40.414062 82.324219 39.1875 81.421875 C 40.40625 81.238281 41.664062 81.003906 42.933594 80.726562 Z M 57.273438 79.871094 C 57.734375 80.457031 58.144531 80.917969 58.503906 81.238281 C 56.691406 82 54.859375 82.65625 53.042969 83.1875 C 52.300781 83.054688 51.507812 82.746094 50.683594 82.261719 C 52.871094 81.605469 55.085938 80.800781 57.273438 79.871094 Z M 70.152344 68.253906 C 70.328125 69.621094 70.371094 70.863281 70.273438 71.957031 C 68.453125 73.304688 66.496094 74.585938 64.449219 75.773438 C 64.234375 74.867188 63.914062 73.800781 63.496094 72.59375 C 65.832031 71.246094 68.070312 69.785156 70.152344 68.253906 Z M 80.769531 51.503906 C 81.027344 53.410156 81.082031 55.277344 80.9375 57.066406 C 79.757812 58.726562 78.332031 60.40625 76.6875 62.058594 C 76.648438 60.441406 76.4375 58.71875 76.054688 56.933594 C 77.867188 55.136719 79.453125 53.3125 80.769531 51.503906 Z M 82.539062 37.128906 C 82.136719 36.070312 81.675781 35.011719 81.164062 33.96875 C 80.640625 32.90625 80.054688 31.847656 79.421875 30.820312 C 80.050781 29.085938 80.394531 27.425781 80.449219 25.867188 C 80.953125 26.707031 81.425781 27.570312 81.855469 28.441406 C 82.445312 29.640625 82.964844 30.875 83.386719 32.054688 C 83.425781 33.636719 83.140625 35.339844 82.539062 37.128906 Z M 79.085938 30.28125 C 77.800781 28.261719 76.300781 26.3125 74.625 24.480469 C 75.246094 22.761719 75.574219 21.113281 75.601562 19.574219 C 77.257812 21.296875 78.730469 23.160156 79.984375 25.125 C 80.015625 26.726562 79.714844 28.460938 79.085938 30.28125 Z M 69.558594 13.90625 C 69.503906 12.675781 69.234375 11.527344 68.753906 10.476562 C 70.628906 11.691406 72.375 13.070312 73.917969 14.554688 C 74.578125 15.710938 74.96875 17.003906 75.082031 18.402344 C 73.410156 16.765625 71.554688 15.253906 69.558594 13.90625 Z M 62.5625 10.074219 C 62.511719 8.96875 62.257812 7.933594 61.808594 6.996094 C 63.976562 7.8125 66.054688 8.820312 67.988281 10 C 68.589844 11.066406 68.941406 12.265625 69.035156 13.558594 C 67.011719 12.234375 64.835938 11.0625 62.5625 10.074219 Z M 53.957031 4.511719 C 53.566406 3.863281 53.050781 3.277344 52.417969 2.765625 C 54.527344 2.992188 56.597656 3.417969 58.539062 4.015625 C 59.453125 4.625 60.203125 5.347656 60.765625 6.160156 C 58.578125 5.417969 56.289062 4.867188 53.957031 4.511719 Z M 48.773438 2.144531 C 47.304688 2.144531 45.804688 2.238281 44.316406 2.421875 C 43.835938 2.113281 43.285156 1.851562 42.675781 1.640625 C 44.203125 1.375 45.742188 1.238281 47.257812 1.238281 C 47.585938 1.238281 47.914062 1.246094 48.203125 1.253906 C 49.136719 1.492188 49.976562 1.808594 50.71875 2.195312 C 50.074219 2.160156 49.421875 2.144531 48.773438 2.144531 Z M 36.757812 4.171875 C 36.488281 4 36.179688 3.855469 35.84375 3.734375 C 37.769531 2.886719 39.746094 2.242188 41.722656 1.824219 C 42.402344 2.003906 43.015625 2.238281 43.554688 2.527344 C 41.28125 2.859375 38.996094 3.414062 36.757812 4.171875 Z M 35.222656 3.554688 C 34.84375 3.460938 34.433594 3.398438 33.996094 3.363281 C 35.460938 2.519531 36.976562 1.867188 38.507812 1.421875 C 39.296875 1.4375 40.042969 1.5 40.734375 1.617188 C 38.878906 2.070312 37.027344 2.722656 35.222656 3.554688 Z M 33.230469 3.332031 L 33.15625 3.332031 C 32.667969 3.332031 32.15625 3.363281 31.628906 3.425781 C 32.574219 2.679688 33.574219 2.109375 34.582031 1.730469 C 35.4375 1.59375 36.269531 1.5 37.0625 1.453125 C 35.757812 1.933594 34.472656 2.5625 33.230469 3.332031 Z M 25.652344 8.144531 C 24.898438 7.488281 24.222656 6.984375 23.636719 6.648438 C 24.238281 6.300781 24.855469 5.980469 25.484375 5.6875 C 25.589844 6.273438 25.777344 7.027344 26.042969 7.941406 C 25.910156 8.003906 25.777344 8.074219 25.652344 8.144531 Z M 21.171875 8.371094 C 22.203125 8.371094 23.355469 8.546875 24.597656 8.894531 C 24.542969 8.945312 24.492188 8.992188 24.441406 9.042969 C 24.269531 9.039062 24.101562 9.039062 23.933594 9.039062 C 22.484375 9.039062 21.101562 9.171875 19.820312 9.433594 C 20.203125 9.074219 20.621094 8.71875 21.066406 8.371094 Z M 13.355469 13.65625 C 13.820312 13.050781 14.34375 12.449219 14.90625 11.863281 C 15.957031 11.167969 17.144531 10.617188 18.445312 10.21875 C 18.105469 10.605469 17.804688 10.996094 17.542969 11.386719 C 16.042969 12.019531 14.640625 12.78125 13.355469 13.65625 Z M 16.742188 12.890625 L 16.738281 12.902344 C 14.925781 13.90625 13.234375 15.050781 11.707031 16.3125 C 11.953125 15.785156 12.246094 15.253906 12.570312 14.746094 C 13.945312 13.6875 15.488281 12.769531 17.160156 12.011719 C 16.996094 12.308594 16.855469 12.601562 16.742188 12.890625 Z M 10.667969 17.8125 C 10.519531 18.339844 10.433594 18.84375 10.410156 19.320312 C 8.875 20.890625 7.492188 22.585938 6.292969 24.363281 C 6.390625 23.65625 6.582031 22.917969 6.855469 22.171875 C 7.949219 20.613281 9.226562 19.152344 10.667969 17.8125 Z M 6.324219 28.3125 C 5.183594 30.410156 4.234375 32.59375 3.492188 34.8125 C 3.121094 33.859375 2.953125 32.820312 2.980469 31.753906 C 3.707031 29.769531 4.644531 27.832031 5.765625 25.988281 C 5.8125 26.816406 6 27.597656 6.324219 28.3125 Z M 2.09375 43.714844 C 2.679688 44.710938 3.472656 45.601562 4.464844 46.367188 C 4.324219 48.789062 4.402344 51.199219 4.6875 53.535156 C 3.605469 52.636719 2.765625 51.589844 2.191406 50.414062 C 1.941406 48.214844 1.910156 45.964844 2.09375 43.714844 Z M 11.765625 64.324219 C 12.195312 65.453125 12.675781 66.5625 13.199219 67.621094 C 13.714844 68.667969 14.277344 69.683594 14.871094 70.648438 C 13.171875 70.085938 11.699219 69.34375 10.480469 68.4375 C 9.773438 67.347656 9.117188 66.195312 8.53125 65.003906 C 8.09375 64.121094 7.691406 63.203125 7.332031 62.277344 C 8.589844 63.121094 10.074219 63.808594 11.765625 64.324219 Z M 22.082031 72.378906 C 23.238281 74.226562 24.515625 75.914062 25.886719 77.402344 C 23.75 77.277344 21.792969 76.953125 20.054688 76.441406 C 18.550781 74.972656 17.171875 73.300781 15.953125 71.472656 C 17.792969 71.96875 19.851562 72.273438 22.082031 72.378906 Z M 26.355469 77.898438 C 27.648438 79.242188 29.027344 80.417969 30.464844 81.402344 C 28.601562 81.273438 26.890625 80.984375 25.40625 80.550781 C 23.761719 79.585938 22.199219 78.429688 20.753906 77.105469 C 22.449219 77.539062 24.328125 77.804688 26.355469 77.898438 Z M 32.777344 81.929688 C 34.582031 81.929688 36.507812 81.792969 38.503906 81.519531 C 39.65625 82.402344 40.835938 83.117188 42.019531 83.660156 C 40.53125 83.839844 39.089844 83.929688 37.734375 83.929688 C 37.320312 83.929688 36.917969 83.921875 36.570312 83.914062 C 35.054688 83.445312 33.558594 82.777344 32.121094 81.925781 C 32.339844 81.929688 32.777344 81.929688 32.777344 81.929688 Z M 46.660156 83.308594 C 47.777344 83.0625 48.917969 82.773438 50.046875 82.449219 C 50.773438 82.902344 51.476562 83.230469 52.15625 83.4375 C 51.464844 83.625 50.773438 83.792969 50.097656 83.941406 C 49.085938 84.164062 48.085938 84.347656 47.15625 84.480469 C 46.042969 84.445312 44.902344 84.238281 43.765625 83.859375 C 44.710938 83.710938 45.679688 83.527344 46.660156 83.308594 Z M 57.765625 79.660156 C 59.917969 78.71875 62.042969 77.660156 64.085938 76.5 C 64.25 77.277344 64.324219 77.902344 64.304688 78.371094 C 62.59375 79.347656 60.8125 80.238281 59.007812 81.023438 C 58.660156 80.730469 58.242188 80.273438 57.765625 79.660156 Z M 64.554688 76.234375 C 66.535156 75.085938 68.433594 73.851562 70.203125 72.558594 C 70.0625 73.523438 69.804688 74.355469 69.433594 75.039062 C 67.980469 76.113281 66.425781 77.140625 64.796875 78.089844 C 64.792969 77.589844 64.710938 76.96875 64.554688 76.234375 Z M 75.335938 68.304688 C 74.941406 69.4375 74.414062 70.464844 73.777344 71.351562 C 72.699219 72.410156 71.496094 73.453125 70.195312 74.460938 C 70.460938 73.789062 70.644531 73.019531 70.738281 72.164062 C 72.402344 70.917969 73.945312 69.625 75.335938 68.304688 Z M 80.847656 57.957031 C 80.644531 59.613281 80.269531 61.199219 79.738281 62.648438 C 78.761719 64.027344 77.589844 65.421875 76.242188 66.800781 C 76.535156 65.53125 76.6875 64.160156 76.691406 62.707031 C 78.277344 61.136719 79.671875 59.542969 80.847656 57.957031 Z M 83.871094 51.757812 C 83.292969 53.242188 82.476562 54.777344 81.445312 56.324219 C 81.539062 54.585938 81.449219 52.777344 81.171875 50.933594 C 82.390625 49.195312 83.363281 47.460938 84.066406 45.777344 C 84.230469 47.726562 84.195312 49.660156 83.964844 51.515625 Z M 84.296875 43.851562 C 84.003906 41.847656 83.5 39.824219 82.796875 37.835938 C 83.363281 36.273438 83.699219 34.769531 83.800781 33.347656 C 84.195312 34.640625 84.507812 35.964844 84.730469 37.304688 C 84.847656 38.1875 84.933594 39.070312 84.992188 39.910156 C 84.957031 41.175781 84.722656 42.5 84.296875 43.851562 Z M 82.214844 28.179688 C 81.683594 27.105469 81.089844 26.042969 80.445312 25.019531 C 80.421875 24.367188 80.339844 23.722656 80.199219 23.101562 C 81.40625 25.367188 82.402344 27.734375 83.164062 30.152344 C 83.183594 30.242188 83.199219 30.332031 83.21875 30.421875 C 82.910156 29.664062 82.574219 28.917969 82.214844 28.179688 Z M 75.597656 18.914062 C 75.550781 17.714844 75.3125 16.589844 74.890625 15.546875 C 75.601562 16.296875 76.292969 17.101562 76.964844 17.957031 C 77.726562 18.996094 78.429688 20.042969 79.039062 21.050781 C 79.511719 22.046875 79.8125 23.109375 79.929688 24.222656 C 78.671875 22.34375 77.21875 20.558594 75.597656 18.914062 Z M 67.457031 9.179688 C 65.582031 8.09375 63.578125 7.164062 61.496094 6.414062 C 61.066406 5.699219 60.519531 5.046875 59.851562 4.464844 C 60.984375 4.875 62.109375 5.355469 63.207031 5.90625 C 64.019531 6.347656 64.863281 6.855469 65.777344 7.441406 C 66.433594 7.96875 66.996094 8.550781 67.457031 9.179688 Z M 51.734375 2.269531 C 51.210938 1.929688 50.628906 1.632812 49.992188 1.378906 C 50.1875 1.402344 50.378906 1.429688 50.570312 1.453125 C 52.679688 1.832031 54.777344 2.378906 56.785156 3.074219 C 56.835938 3.09375 56.882812 3.113281 56.929688 3.136719 C 55.238281 2.710938 53.496094 2.421875 51.734375 2.269531 Z M 30.828125 3.539062 C 30.53125 3.589844 30.226562 3.648438 29.914062 3.714844 C 29.539062 3.796875 29.164062 3.894531 28.785156 4 C 29.15625 3.511719 29.570312 3.136719 30.007812 2.890625 C 30.773438 2.636719 31.527344 2.410156 32.242188 2.21875 L 32.476562 2.160156 C 32.621094 2.121094 32.769531 2.085938 32.914062 2.054688 C 32.191406 2.457031 31.496094 2.953125 30.828125 3.539062 Z M 25.855469 4.507812 C 26.824219 4.070312 27.8125 3.667969 28.8125 3.304688 C 28.566406 3.5625 28.339844 3.859375 28.128906 4.195312 C 27.371094 4.4375 26.601562 4.722656 25.84375 5.054688 C 25.820312 4.769531 25.835938 4.601562 25.855469 4.507812 Z M 22.5625 6.179688 C 23.476562 5.664062 24.421875 5.179688 25.378906 4.730469 C 25.378906 4.875 25.390625 5.046875 25.414062 5.246094 C 24.652344 5.597656 23.90625 5.988281 23.1875 6.410156 C 22.964844 6.308594 22.757812 6.230469 22.5625 6.179688 Z M 19.429688 8.128906 C 20.226562 7.585938 21.058594 7.058594 21.914062 6.554688 C 21.949219 6.550781 21.988281 6.546875 22.027344 6.546875 C 22.230469 6.546875 22.464844 6.597656 22.722656 6.691406 C 22.082031 7.089844 21.472656 7.507812 20.902344 7.945312 C 20.386719 7.960938 19.894531 8.023438 19.429688 8.128906 Z M 16.140625 10.671875 C 16.359375 10.476562 16.582031 10.277344 16.816406 10.082031 C 17.261719 9.71875 17.71875 9.363281 18.152344 9.035156 C 18.792969 8.707031 19.519531 8.5 20.316406 8.414062 C 19.835938 8.8125 19.394531 9.214844 18.992188 9.625 C 17.976562 9.886719 17.023438 10.238281 16.140625 10.671875 Z M 10.96875 16.894531 L 10.945312 16.957031 L 10.710938 17.160156 C 10.554688 17.292969 10.398438 17.425781 10.25 17.5625 C 9.34375 18.414062 8.492188 19.324219 7.707031 20.285156 C 7.726562 20.253906 7.742188 20.21875 7.761719 20.183594 C 8.367188 19.238281 8.929688 18.421875 9.46875 17.695312 C 10.121094 16.929688 10.835938 16.210938 11.601562 15.542969 C 11.351562 16 11.140625 16.453125 10.96875 16.894531 Z M 3.183594 30.082031 C 3.21875 29.886719 3.253906 29.707031 3.296875 29.527344 C 3.757812 28.144531 4.296875 26.769531 4.898438 25.445312 C 5.242188 24.757812 5.621094 24.085938 6.023438 23.433594 C 5.875 24.039062 5.785156 24.621094 5.761719 25.179688 C 4.761719 26.75 3.898438 28.394531 3.183594 30.082031 Z M 1.316406 39.109375 C 1.375 38.472656 1.445312 37.839844 1.523438 37.222656 C 1.777344 35.753906 2.132812 34.3125 2.582031 32.910156 C 2.667969 33.835938 2.894531 34.707031 3.265625 35.507812 C 2.585938 37.664062 2.105469 39.867188 1.828125 42.058594 C 1.5 41.152344 1.332031 40.160156 1.316406 39.109375 Z M 4.777344 54.230469 C 5.105469 56.546875 5.644531 58.808594 6.378906 60.96875 C 5.40625 60.128906 4.625 59.15625 4.0625 58.082031 L 3.941406 57.777344 C 3.855469 57.566406 3.769531 57.351562 3.691406 57.140625 C 3.082031 55.320312 2.632812 53.464844 2.351562 51.609375 C 2.972656 52.585938 3.785156 53.464844 4.777344 54.230469 Z M 6.675781 61.808594 C 7.097656 62.941406 7.578125 64.058594 8.105469 65.132812 C 8.503906 65.949219 8.941406 66.746094 9.402344 67.523438 C 9.222656 67.351562 9.050781 67.171875 8.886719 66.992188 C 7.359375 64.839844 6.039062 62.550781 4.945312 60.15625 C 5.449219 60.757812 6.027344 61.308594 6.675781 61.808594 Z M 15.265625 71.273438 C 16.417969 73.050781 17.714844 74.6875 19.128906 76.144531 C 17.769531 75.667969 16.558594 75.058594 15.523438 74.335938 C 15.167969 74.023438 14.816406 73.710938 14.480469 73.394531 C 13.261719 72.160156 12.152344 70.839844 11.167969 69.449219 C 12.351562 70.191406 13.726562 70.804688 15.265625 71.273438 Z M 31.210938 81.894531 C 32.40625 82.652344 33.648438 83.285156 34.917969 83.785156 C 34.382812 83.730469 33.851562 83.652344 33.332031 83.5625 C 31.710938 83.171875 30.15625 82.707031 28.726562 82.183594 C 28.105469 81.929688 27.503906 81.65625 26.925781 81.367188 C 28.25 81.648438 29.683594 81.824219 31.210938 81.894531 Z M 58.878906 81.539062 C 58.917969 81.5625 58.953125 81.589844 58.992188 81.609375 C 57.761719 82.113281 56.476562 82.566406 55.167969 82.957031 C 56.410156 82.539062 57.648438 82.0625 58.878906 81.539062 Z M 79.03125 64.304688 C 78.898438 64.578125 78.761719 64.847656 78.617188 65.113281 C 77.574219 66.761719 76.425781 68.335938 75.1875 69.800781 C 75.519531 69.125 75.796875 68.402344 76.019531 67.644531 C 77.136719 66.539062 78.144531 65.421875 79.03125 64.304688 Z M 83.667969 53.316406 C 83.585938 53.742188 83.492188 54.167969 83.386719 54.585938 C 82.859375 56.382812 82.199219 58.164062 81.433594 59.871094 C 81.179688 60.355469 80.910156 60.835938 80.621094 61.308594 C 80.996094 60 81.253906 58.628906 81.382812 57.214844 C 82.300781 55.902344 83.066406 54.597656 83.667969 53.316406 Z M 68.351562 9.714844 C 68.160156 9.382812 67.941406 9.0625 67.699219 8.757812 C 69.128906 9.792969 70.492188 10.917969 71.777344 12.121094 C 70.691406 11.253906 69.546875 10.449219 68.351562 9.714844 Z M 41.789062 1.378906 C 41.214844 1.238281 40.605469 1.136719 39.957031 1.074219 C 40.527344 0.960938 41.109375 0.875 41.703125 0.8125 L 41.964844 0.804688 C 42.347656 0.792969 42.734375 0.777344 43.125 0.777344 C 43.929688 0.777344 44.777344 0.808594 45.695312 0.867188 C 44.394531 0.941406 43.085938 1.113281 41.789062 1.378906 Z M 12.28125 14.441406 C 12.148438 14.542969 12.019531 14.648438 11.890625 14.753906 C 12.109375 14.507812 12.332031 14.265625 12.5625 14.023438 C 12.460938 14.164062 12.367188 14.304688 12.28125 14.441406 Z M 1.628906 48.933594 C 1.617188 48.890625 1.605469 48.847656 1.59375 48.804688 C 1.296875 46.78125 1.148438 44.746094 1.148438 42.753906 C 1.148438 42.328125 1.15625 41.890625 1.175781 41.4375 C 1.308594 41.988281 1.488281 42.511719 1.71875 43.003906 C 1.523438 44.988281 1.492188 46.976562 1.628906 48.933594 Z M 42.820312 84 C 43.582031 84.296875 44.34375 84.519531 45.101562 84.671875 C 44.382812 84.707031 43.738281 84.726562 43.125 84.726562 C 41.917969 84.726562 40.679688 84.667969 39.347656 84.546875 C 38.984375 84.492188 38.628906 84.429688 38.28125 84.355469 C 39.722656 84.335938 41.246094 84.214844 42.820312 84 Z M 64.21875 78.90625 C 64.203125 78.960938 64.183594 79.007812 64.160156 79.050781 C 62.640625 79.933594 61.101562 80.710938 59.582031 81.363281 C 59.53125 81.351562 59.476562 81.332031 59.417969 81.304688 C 61.050781 80.585938 62.664062 79.785156 64.21875 78.90625 Z M 64.21875 78.90625 " fill-opacity="1" fill-rule="nonzero"/></g></g></g></g><g fill="#000000" fill-opacity="1"><g transform="translate(49.259686, 199.016523)"><g><path d="M 7.28125 -39.96875 C 7.476562 -40.175781 7.695312 -40.28125 7.9375 -40.28125 C 8.4375 -40.28125 9.148438 -39.679688 10.078125 -38.484375 C 11.179688 -37.117188 12.164062 -35.984375 13.03125 -35.078125 C 14.0625 -33.984375 14.578125 -33.367188 14.578125 -33.234375 C 14.578125 -33.140625 14.425781 -32.890625 14.125 -32.484375 C 13.894531 -32.191406 13.644531 -32.046875 13.375 -32.046875 C 12.8125 -32.046875 11.832031 -32.789062 10.4375 -34.28125 L 8.53125 -36.375 L 7.640625 -34.734375 C 6.941406 -33.535156 6.257812 -32.519531 5.59375 -31.6875 L 4.546875 -30.25 L 5.046875 -26.796875 C 5.046875 -26.796875 5.175781 -25.945312 5.4375 -24.25 L 6.1875 -19.21875 C 6.488281 -16.945312 6.988281 -14.019531 7.6875 -10.4375 C 8.320312 -6.90625 8.738281 -4.820312 8.9375 -4.1875 C 9.070312 -3.851562 9.1875 -3.835938 9.28125 -4.140625 L 9.28125 -4.1875 C 9.644531 -5.382812 10.378906 -9.828125 11.484375 -17.515625 C 12.378906 -23.609375 12.992188 -26.984375 13.328125 -27.640625 C 13.523438 -27.941406 13.804688 -28.09375 14.171875 -28.09375 C 14.472656 -28.09375 14.753906 -27.976562 15.015625 -27.75 C 15.316406 -27.550781 15.46875 -27.332031 15.46875 -27.09375 C 15.46875 -26.832031 14.769531 -23.273438 13.375 -16.421875 C 12.007812 -9.867188 11.144531 -5.644531 10.78125 -3.75 C 10.507812 -2.28125 10.289062 -1.378906 10.125 -1.046875 C 9.832031 -0.546875 9.382812 -0.296875 8.78125 -0.296875 L 8.53125 -0.34375 C 8.164062 -0.507812 7.582031 -2.554688 6.78125 -6.484375 C 6.519531 -8.015625 6.070312 -9.992188 5.4375 -12.421875 C 4.707031 -15.554688 3.8125 -20.097656 2.75 -26.046875 L 2 -30.09375 L 2 -30.390625 C 2 -30.753906 2.265625 -31.253906 2.796875 -31.890625 C 3.796875 -33.148438 4.726562 -34.546875 5.59375 -36.078125 C 6.519531 -37.640625 6.984375 -38.6875 6.984375 -39.21875 C 6.984375 -39.519531 7.082031 -39.769531 7.28125 -39.96875 Z M 7.28125 -39.96875 "/></g></g></g><g fill="#000000" fill-opacity="1"><g transform="translate(66.723716, 199.016523)"><g><path d="M 2.5 -37.578125 C 2.789062 -38.078125 3.15625 -38.328125 3.59375 -38.328125 C 3.726562 -38.328125 3.925781 -38.257812 4.1875 -38.125 C 4.320312 -38.0625 4.40625 -37.929688 4.4375 -37.734375 C 4.507812 -37.535156 4.5625 -37.066406 4.59375 -36.328125 C 4.625 -35.796875 4.640625 -34.566406 4.640625 -32.640625 L 4.59375 -21.3125 L 4.546875 -4.84375 L 5.1875 -5.546875 C 5.65625 -5.972656 6.269531 -6.1875 7.03125 -6.1875 C 8.101562 -6.1875 9.085938 -5.785156 9.984375 -4.984375 C 10.285156 -4.722656 10.484375 -4.675781 10.578125 -4.84375 C 10.648438 -4.90625 10.6875 -5.535156 10.6875 -6.734375 L 10.53125 -14.515625 C 10.363281 -20.171875 10.28125 -25.582031 10.28125 -30.75 C 10.28125 -34.601562 10.332031 -36.78125 10.4375 -37.28125 C 10.601562 -37.875 10.953125 -38.171875 11.484375 -38.171875 C 11.578125 -38.171875 11.789062 -38.109375 12.125 -37.984375 L 12.671875 -37.734375 L 12.421875 -29.5 C 12.296875 -24.175781 12.234375 -18.21875 12.234375 -11.625 L 12.234375 -9.578125 C 12.234375 -6.347656 12.179688 -4.238281 12.078125 -3.25 C 12.046875 -2.25 11.878906 -1.75 11.578125 -1.75 C 11.378906 -1.75 10.914062 -2.113281 10.1875 -2.84375 C 8.914062 -4.070312 7.863281 -4.6875 7.03125 -4.6875 C 6.769531 -4.6875 6.359375 -4.390625 5.796875 -3.796875 C 5.222656 -3.222656 4.769531 -2.640625 4.4375 -2.046875 C 4.238281 -1.578125 3.972656 -1.34375 3.640625 -1.34375 L 3.546875 -1.34375 C 3.304688 -1.414062 3.15625 -1.566406 3.09375 -1.796875 C 2.988281 -2.191406 2.9375 -4.285156 2.9375 -8.078125 C 2.84375 -16.203125 2.742188 -22.175781 2.640625 -26 C 2.546875 -30.59375 2.5 -33.921875 2.5 -35.984375 Z M 2.5 -37.578125 "/></g></g></g><g fill="#000000" fill-opacity="1"><g transform="translate(81.892473, 199.016523)"><g><path d="M 8.28125 -38.578125 C 8.644531 -38.941406 8.929688 -39.125 9.140625 -39.125 C 9.460938 -39.125 9.957031 -38.640625 10.625 -37.671875 C 11.53125 -36.347656 12.679688 -35.300781 14.078125 -34.53125 C 14.910156 -34.070312 15.34375 -33.570312 15.375 -33.03125 C 15.375 -32.832031 15.273438 -32.632812 15.078125 -32.4375 C 14.867188 -32.238281 14.617188 -32.140625 14.328125 -32.140625 C 13.191406 -32.140625 11.992188 -32.722656 10.734375 -33.890625 C 10.035156 -34.554688 9.632812 -34.835938 9.53125 -34.734375 L 7.28125 -32.59375 L 5.390625 -31.140625 L 6.09375 -30.640625 C 6.71875 -30.109375 8.429688 -29.84375 11.234375 -29.84375 C 12.859375 -29.84375 14.351562 -30.222656 15.71875 -30.984375 C 16.382812 -31.359375 16.898438 -31.546875 17.265625 -31.546875 C 17.535156 -31.546875 17.753906 -31.460938 17.921875 -31.296875 C 18.117188 -31.160156 18.21875 -30.941406 18.21875 -30.640625 C 18.21875 -30.304688 17.984375 -29.640625 17.515625 -28.640625 C 16.921875 -27.378906 16.40625 -25.769531 15.96875 -23.8125 C 15.601562 -22.28125 15.070312 -19.25 14.375 -14.71875 C 13.4375 -8.4375 12.820312 -4.59375 12.53125 -3.1875 C 12.164062 -1.53125 11.816406 -0.703125 11.484375 -0.703125 C 11.347656 -0.703125 11.144531 -0.800781 10.875 -1 C 10.644531 -1.226562 9.816406 -3.835938 8.390625 -8.828125 C 6.660156 -14.753906 5.578125 -18.75 5.140625 -20.8125 C 4.742188 -22.601562 4.546875 -23.703125 4.546875 -24.109375 C 4.546875 -24.472656 4.609375 -24.703125 4.734375 -24.796875 C 4.867188 -24.929688 5.117188 -25 5.484375 -25 C 5.921875 -25 6.207031 -24.832031 6.34375 -24.5 C 6.46875 -24.164062 6.664062 -23.285156 6.9375 -21.859375 C 7.4375 -18.867188 8.203125 -15.34375 9.234375 -11.28125 C 10.328125 -6.957031 10.972656 -4.828125 11.171875 -4.890625 C 11.273438 -4.890625 11.578125 -6.570312 12.078125 -9.9375 C 12.578125 -13.226562 12.925781 -15.988281 13.125 -18.21875 C 13.5625 -22.113281 13.976562 -24.84375 14.375 -26.40625 L 14.765625 -27.796875 C 14.765625 -27.828125 14.71875 -27.84375 14.625 -27.84375 C 13.957031 -27.84375 13.289062 -27.773438 12.625 -27.640625 C 11.925781 -27.546875 11.328125 -27.5 10.828125 -27.5 C 10.328125 -27.5 9.726562 -27.597656 9.03125 -27.796875 C 5.832031 -28.628906 3.96875 -29.257812 3.4375 -29.6875 C 2.84375 -30.15625 2.515625 -30.457031 2.453125 -30.59375 C 2.285156 -30.757812 2.148438 -31.09375 2.046875 -31.59375 C 2.015625 -31.65625 2 -31.738281 2 -31.84375 C 2 -32.175781 2.265625 -32.457031 2.796875 -32.6875 C 5.085938 -33.945312 6.550781 -34.929688 7.1875 -35.640625 C 7.6875 -36.128906 7.9375 -36.691406 7.9375 -37.328125 C 7.9375 -37.429688 7.921875 -37.5 7.890625 -37.53125 L 7.890625 -37.828125 C 7.890625 -38.054688 8.019531 -38.304688 8.28125 -38.578125 Z M 8.28125 -38.578125 "/></g></g></g><g fill="#000000" fill-opacity="1"><g transform="translate(102.100845, 199.016523)"><g><path d="M 5.6875 -7.890625 C 5.6875 -11.410156 5.601562 -14.921875 5.4375 -18.421875 C 5.269531 -23.078125 5.1875 -26.550781 5.1875 -28.84375 L 5.1875 -34.734375 L 4.484375 -35.234375 C 4.085938 -35.535156 3.789062 -35.6875 3.59375 -35.6875 C 3.394531 -35.6875 3.296875 -35.269531 3.296875 -34.4375 C 3.296875 -33.769531 3.210938 -33.269531 3.046875 -32.9375 C 2.847656 -32.707031 2.546875 -32.59375 2.140625 -32.59375 C 1.773438 -32.59375 1.507812 -32.789062 1.34375 -33.1875 C 1.207031 -33.582031 1.109375 -34.476562 1.046875 -35.875 C 1.015625 -36.144531 1 -36.613281 1 -37.28125 C 1 -38.039062 1.082031 -38.539062 1.25 -38.78125 C 1.445312 -39.007812 1.828125 -39.125 2.390625 -39.125 C 2.890625 -39.125 4.039062 -38.476562 5.84375 -37.1875 C 7.601562 -35.882812 8.535156 -35.234375 8.640625 -35.234375 C 8.734375 -35.234375 8.898438 -35.78125 9.140625 -36.875 C 9.398438 -38.113281 9.597656 -38.847656 9.734375 -39.078125 C 9.992188 -39.441406 10.3125 -39.625 10.6875 -39.625 C 11.113281 -39.625 11.410156 -39.425781 11.578125 -39.03125 C 11.640625 -38.925781 11.671875 -38.707031 11.671875 -38.375 C 11.671875 -37.875 11.609375 -37.242188 11.484375 -36.484375 C 11.210938 -35.253906 11.078125 -34.304688 11.078125 -33.640625 C 11.078125 -33.140625 10.925781 -32.691406 10.625 -32.296875 L 10.125 -31.6875 L 8.890625 -32.34375 C 8.390625 -32.632812 7.972656 -32.78125 7.640625 -32.78125 C 7.566406 -32.78125 7.53125 -32.765625 7.53125 -32.734375 C 7.46875 -32.597656 7.40625 -27.59375 7.34375 -17.71875 L 7.28125 -10.28125 C 7.25 -8.550781 7.234375 -6.519531 7.234375 -4.1875 L 7.1875 -1.890625 C 7.15625 -1.191406 6.9375 -0.84375 6.53125 -0.84375 C 6.332031 -0.84375 6.164062 -0.894531 6.03125 -1 C 5.800781 -1.226562 5.6875 -3.523438 5.6875 -7.890625 Z M 5.6875 -7.890625 "/></g></g></g><g fill="#000000" fill-opacity="1"><g transform="translate(114.774736, 199.016523)"><g><path d="M 8.03125 -38.484375 C 8.132812 -38.710938 8.316406 -38.910156 8.578125 -39.078125 C 8.847656 -39.273438 9.132812 -39.375 9.4375 -39.375 C 9.769531 -39.375 10.035156 -39.257812 10.234375 -39.03125 C 10.398438 -38.832031 10.734375 -38.21875 11.234375 -37.1875 C 12.492188 -34.789062 14.039062 -33.09375 15.875 -32.09375 C 16.769531 -31.5625 17.21875 -31.113281 17.21875 -30.75 C 17.21875 -30.34375 16.867188 -29.34375 16.171875 -27.75 C 15.472656 -26.25 14.820312 -24.398438 14.21875 -22.203125 C 13.820312 -20.804688 13.191406 -18.046875 12.328125 -13.921875 C 11.359375 -9.265625 10.726562 -6.085938 10.4375 -4.390625 C 10.164062 -2.992188 9.945312 -2.097656 9.78125 -1.703125 C 9.507812 -1.234375 9.191406 -1 8.828125 -1 L 8.390625 -1.09375 C 8.015625 -1.195312 7.726562 -1.546875 7.53125 -2.140625 C 6.832031 -4.773438 6.21875 -8.003906 5.6875 -11.828125 C 5.289062 -14.328125 4.804688 -16.921875 4.234375 -19.609375 C 4.078125 -20.304688 3.332031 -24.066406 2 -30.890625 L 2 -31.140625 C 2 -31.535156 2.097656 -31.800781 2.296875 -31.9375 C 4.054688 -33.375 5.320312 -34.472656 6.09375 -35.234375 C 6.789062 -36.066406 7.304688 -36.863281 7.640625 -37.625 Z M 9.375 -35.234375 C 7.019531 -32.867188 5.675781 -31.554688 5.34375 -31.296875 L 4.484375 -30.640625 L 4.890625 -27.546875 C 4.992188 -26.679688 5.191406 -25.398438 5.484375 -23.703125 L 5.984375 -20.40625 L 6.140625 -19.359375 C 6.398438 -17.765625 6.734375 -15.570312 7.140625 -12.78125 C 7.304688 -11.113281 7.585938 -9.25 7.984375 -7.1875 C 8.316406 -5.320312 8.550781 -4.390625 8.6875 -4.390625 C 8.945312 -4.390625 9.773438 -8.484375 11.171875 -16.671875 C 11.835938 -20.722656 12.273438 -23.164062 12.484375 -24 C 12.679688 -25.03125 13.144531 -26.429688 13.875 -28.203125 C 14.238281 -29.296875 14.421875 -29.894531 14.421875 -30 L 14.375 -30.140625 C 14.039062 -30.378906 13.523438 -30.765625 12.828125 -31.296875 C 11.960938 -31.921875 11.164062 -32.75 10.4375 -33.78125 Z M 9.375 -35.234375 "/></g></g></g><g fill="#000000" fill-opacity="1"><g transform="translate(133.985161, 199.016523)"><g><path d="M 4.9375 -38.671875 C 5.175781 -39.078125 5.539062 -39.28125 6.03125 -39.28125 C 6.53125 -39.28125 6.847656 -39.097656 6.984375 -38.734375 C 7.085938 -38.359375 7.335938 -37.039062 7.734375 -34.78125 C 8.066406 -32.457031 8.300781 -31.210938 8.4375 -31.046875 L 8.53125 -30.9375 C 8.832031 -30.9375 9.265625 -32.617188 9.828125 -35.984375 C 10.097656 -37.773438 10.300781 -38.773438 10.4375 -38.984375 C 10.5625 -39.179688 10.757812 -39.28125 11.03125 -39.28125 C 11.53125 -39.28125 11.945312 -39.03125 12.28125 -38.53125 C 12.613281 -38.09375 12.910156 -36.507812 13.171875 -33.78125 C 13.441406 -30.988281 13.726562 -26.984375 14.03125 -21.765625 C 14.226562 -17.640625 15.109375 -11.847656 16.671875 -4.390625 C 17.035156 -2.796875 17.21875 -1.695312 17.21875 -1.09375 C 17.21875 -0.925781 17.203125 -0.8125 17.171875 -0.75 C 17.035156 -0.550781 16.882812 -0.453125 16.71875 -0.453125 C 16.320312 -0.453125 15.957031 -1.179688 15.625 -2.640625 C 15.289062 -3.867188 14.722656 -6.597656 13.921875 -10.828125 C 13.085938 -15.191406 12.609375 -17.890625 12.484375 -18.921875 C 12.316406 -19.910156 12.097656 -21.90625 11.828125 -24.90625 C 11.460938 -28.632812 11.226562 -30.53125 11.125 -30.59375 L 11.078125 -30.59375 C 10.910156 -30.59375 10.710938 -30.0625 10.484375 -29 C 10.242188 -27.894531 10.023438 -27.175781 9.828125 -26.84375 C 9.660156 -26.550781 9.347656 -26.351562 8.890625 -26.25 L 8.484375 -26.25 C 8.085938 -26.25 7.785156 -26.414062 7.578125 -26.75 C 7.347656 -27.019531 7.101562 -27.632812 6.84375 -28.59375 C 6.539062 -29.59375 6.304688 -30.09375 6.140625 -30.09375 C 6.035156 -30.09375 5.984375 -29.976562 5.984375 -29.75 L 5.6875 -26.25 C 5.1875 -22.09375 4.804688 -17.050781 4.546875 -11.125 C 4.378906 -6.601562 4.210938 -3.757812 4.046875 -2.59375 C 3.878906 -1.59375 3.757812 -1.007812 3.6875 -0.84375 C 3.59375 -0.582031 3.410156 -0.453125 3.140625 -0.453125 L 3 -0.453125 C 2.664062 -0.453125 2.5 -0.71875 2.5 -1.25 C 2.5 -1.71875 2.546875 -2.265625 2.640625 -2.890625 C 2.773438 -3.785156 2.941406 -7.710938 3.140625 -14.671875 C 3.335938 -21.460938 3.488281 -25.253906 3.59375 -26.046875 L 3.9375 -30.6875 L 4.4375 -36.328125 C 4.601562 -37.660156 4.769531 -38.441406 4.9375 -38.671875 Z M 4.9375 -38.671875 "/></g></g></g><g fill="#000000" fill-opacity="1"><g transform="translate(152.197651, 199.016523)"><g><path d="M 1.796875 -37.984375 C 2.023438 -38.210938 2.257812 -38.328125 2.5 -38.328125 C 2.894531 -38.328125 3.492188 -38.03125 4.296875 -37.4375 C 5.359375 -36.664062 6.40625 -36.28125 7.4375 -36.28125 C 7.9375 -36.28125 8.484375 -36.363281 9.078125 -36.53125 C 9.816406 -36.757812 10.382812 -37.039062 10.78125 -37.375 C 11.082031 -37.675781 11.429688 -37.828125 11.828125 -37.828125 C 12.265625 -37.828125 12.546875 -37.675781 12.671875 -37.375 C 12.703125 -37.34375 12.71875 -37.257812 12.71875 -37.125 C 12.71875 -36.363281 12.203125 -33.988281 11.171875 -30 C 10.046875 -25.5 9.484375 -23.050781 9.484375 -22.65625 C 9.484375 -22.457031 9.695312 -22.242188 10.125 -22.015625 C 10.726562 -21.742188 11.097656 -21.625 11.234375 -21.65625 C 11.523438 -21.65625 11.789062 -22.054688 12.03125 -22.859375 C 12.59375 -24.359375 13.007812 -25.085938 13.28125 -25.046875 L 13.53125 -25 C 14.125 -24.800781 14.335938 -24.550781 14.171875 -24.25 C 13.703125 -23.457031 13.40625 -22.644531 13.28125 -21.8125 C 12.945312 -20.113281 12.578125 -19.265625 12.171875 -19.265625 L 12.078125 -19.265625 C 11.609375 -19.265625 11.0625 -19.429688 10.4375 -19.765625 C 9.46875 -20.191406 8.929688 -20.40625 8.828125 -20.40625 C 8.765625 -20.40625 8.101562 -17.976562 6.84375 -13.125 C 5.507812 -8.03125 4.875 -5.382812 4.9375 -5.1875 C 4.9375 -5.15625 4.972656 -5.140625 5.046875 -5.140625 C 5.171875 -5.140625 5.367188 -5.253906 5.640625 -5.484375 C 6.109375 -5.921875 6.539062 -6.207031 6.9375 -6.34375 C 7.300781 -6.46875 7.867188 -6.53125 8.640625 -6.53125 C 9.503906 -6.53125 10.25 -6.382812 10.875 -6.09375 C 11.070312 -5.988281 11.769531 -5.4375 12.96875 -4.4375 L 14.328125 -3.390625 L 14.375 -3.390625 L 14.375 -3.59375 C 14.40625 -3.625 14.421875 -3.691406 14.421875 -3.796875 C 14.316406 -4.828125 14.285156 -5.390625 14.328125 -5.484375 L 14.328125 -9.625 C 14.328125 -10.757812 14.457031 -11.410156 14.71875 -11.578125 C 15.082031 -11.578125 15.316406 -11.476562 15.421875 -11.28125 C 15.585938 -10.882812 15.738281 -9.734375 15.875 -7.828125 L 15.875 -0.59375 L 15.078125 -0.703125 C 14.472656 -0.765625 14.019531 -0.976562 13.71875 -1.34375 C 13.425781 -1.8125 12.847656 -2.492188 11.984375 -3.390625 C 11.210938 -4.160156 10.675781 -4.609375 10.375 -4.734375 C 9.945312 -4.972656 9.367188 -5.09375 8.640625 -5.09375 C 7.441406 -5.09375 6.289062 -4.375 5.1875 -2.9375 L 3.640625 -1 C 3.273438 -0.53125 3.023438 -0.296875 2.890625 -0.296875 C 2.828125 -0.296875 2.710938 -0.378906 2.546875 -0.546875 C 2.410156 -0.679688 2.34375 -0.863281 2.34375 -1.09375 C 2.34375 -1.363281 2.691406 -2.828125 3.390625 -5.484375 C 4.328125 -8.984375 5.257812 -12.925781 6.1875 -17.3125 L 6.984375 -21.15625 L 6.484375 -21.515625 C 6.148438 -21.742188 5.882812 -21.859375 5.6875 -21.859375 C 5.457031 -21.859375 5.34375 -21.722656 5.34375 -21.453125 C 5.34375 -21.023438 5.242188 -20.710938 5.046875 -20.515625 C 4.835938 -20.273438 4.585938 -20.15625 4.296875 -20.15625 C 3.992188 -20.15625 3.773438 -20.320312 3.640625 -20.65625 C 3.441406 -21.019531 3.257812 -21.65625 3.09375 -22.5625 L 2.9375 -23.8125 C 2.9375 -24.070312 2.988281 -24.269531 3.09375 -24.40625 C 3.289062 -24.632812 3.523438 -24.75 3.796875 -24.75 C 4.296875 -24.75 4.960938 -24.535156 5.796875 -24.109375 C 6.359375 -23.773438 6.875 -23.609375 7.34375 -23.609375 L 7.390625 -23.609375 C 7.421875 -23.578125 7.816406 -25.238281 8.578125 -28.59375 C 9.316406 -31.851562 9.6875 -33.617188 9.6875 -33.890625 C 9.6875 -34.054688 8.984375 -34.140625 7.578125 -34.140625 C 6.148438 -34.140625 5.269531 -34.171875 4.9375 -34.234375 C 4.90625 -34.265625 4.835938 -34.28125 4.734375 -34.28125 C 4.566406 -34.28125 4.484375 -34.164062 4.484375 -33.9375 L 4.484375 -33.6875 C 4.523438 -33.65625 4.546875 -33.554688 4.546875 -33.390625 L 4.546875 -33.03125 C 4.546875 -32.070312 4.160156 -31.59375 3.390625 -31.59375 C 3.054688 -31.59375 2.789062 -31.773438 2.59375 -32.140625 C 2.394531 -32.503906 2.210938 -33.21875 2.046875 -34.28125 C 1.847656 -35.613281 1.679688 -36.5 1.546875 -36.9375 C 1.515625 -37 1.5 -37.097656 1.5 -37.234375 C 1.5 -37.523438 1.597656 -37.773438 1.796875 -37.984375 Z M 1.796875 -37.984375 "/></g></g></g><g fill="#000000" fill-opacity="1"><g transform="translate(169.561883, 199.016523)"><g><path d="M 3 -39.375 C 3.164062 -39.570312 3.378906 -39.671875 3.640625 -39.671875 C 4.304688 -39.671875 4.773438 -39.539062 5.046875 -39.28125 L 5.6875 -38.53125 L 6.484375 -39.171875 C 6.953125 -39.535156 7.335938 -39.71875 7.640625 -39.71875 C 7.867188 -39.71875 8.117188 -39.585938 8.390625 -39.328125 C 8.585938 -39.128906 8.71875 -38.863281 8.78125 -38.53125 C 8.71875 -38.125 8.519531 -37.722656 8.1875 -37.328125 C 7.78125 -36.929688 7.578125 -36.648438 7.578125 -36.484375 C 7.578125 -36.242188 7.726562 -35.992188 8.03125 -35.734375 C 8.4375 -35.335938 8.640625 -34.921875 8.640625 -34.484375 C 8.640625 -34.222656 8.554688 -33.972656 8.390625 -33.734375 C 8.179688 -33.535156 7.910156 -33.4375 7.578125 -33.4375 L 6.84375 -33.4375 L 6.84375 -29.5 L 6.390625 -6.140625 C 6.285156 -2.578125 6.132812 -0.75 5.9375 -0.65625 C 5.769531 -0.519531 5.601562 -0.453125 5.4375 -0.453125 C 5.175781 -0.453125 4.992188 -0.765625 4.890625 -1.390625 C 4.785156 -1.796875 4.734375 -2.414062 4.734375 -3.25 L 4.796875 -4.984375 L 4.890625 -9.234375 L 4.890625 -10.875 C 4.890625 -14.101562 4.804688 -17.914062 4.640625 -22.3125 L 4.390625 -30.84375 L 4.34375 -33.4375 L 3.6875 -33.4375 C 2.894531 -33.4375 2.5 -33.800781 2.5 -34.53125 C 2.5 -34.96875 2.726562 -35.414062 3.1875 -35.875 L 3.9375 -36.625 L 3.296875 -37.375 C 2.890625 -37.875 2.6875 -38.273438 2.6875 -38.578125 L 2.6875 -38.734375 C 2.6875 -39.023438 2.789062 -39.238281 3 -39.375 Z M 5.890625 -34.28125 C 5.660156 -34.519531 5.523438 -34.640625 5.484375 -34.640625 C 5.390625 -34.566406 5.273438 -34.445312 5.140625 -34.28125 C 5.003906 -34.15625 4.972656 -34.054688 5.046875 -33.984375 C 5.078125 -33.953125 5.222656 -33.9375 5.484375 -33.9375 C 5.785156 -33.9375 5.953125 -33.953125 5.984375 -33.984375 C 6.015625 -34.015625 5.984375 -34.113281 5.890625 -34.28125 Z M 5.890625 -34.28125 "/></g></g></g><g fill="#000000" fill-opacity="1"><g transform="translate(180.838652, 199.016523)"><g><path d="M 5.6875 -7.890625 C 5.6875 -11.410156 5.601562 -14.921875 5.4375 -18.421875 C 5.269531 -23.078125 5.1875 -26.550781 5.1875 -28.84375 L 5.1875 -34.734375 L 4.484375 -35.234375 C 4.085938 -35.535156 3.789062 -35.6875 3.59375 -35.6875 C 3.394531 -35.6875 3.296875 -35.269531 3.296875 -34.4375 C 3.296875 -33.769531 3.210938 -33.269531 3.046875 -32.9375 C 2.847656 -32.707031 2.546875 -32.59375 2.140625 -32.59375 C 1.773438 -32.59375 1.507812 -32.789062 1.34375 -33.1875 C 1.207031 -33.582031 1.109375 -34.476562 1.046875 -35.875 C 1.015625 -36.144531 1 -36.613281 1 -37.28125 C 1 -38.039062 1.082031 -38.539062 1.25 -38.78125 C 1.445312 -39.007812 1.828125 -39.125 2.390625 -39.125 C 2.890625 -39.125 4.039062 -38.476562 5.84375 -37.1875 C 7.601562 -35.882812 8.535156 -35.234375 8.640625 -35.234375 C 8.734375 -35.234375 8.898438 -35.78125 9.140625 -36.875 C 9.398438 -38.113281 9.597656 -38.847656 9.734375 -39.078125 C 9.992188 -39.441406 10.3125 -39.625 10.6875 -39.625 C 11.113281 -39.625 11.410156 -39.425781 11.578125 -39.03125 C 11.640625 -38.925781 11.671875 -38.707031 11.671875 -38.375 C 11.671875 -37.875 11.609375 -37.242188 11.484375 -36.484375 C 11.210938 -35.253906 11.078125 -34.304688 11.078125 -33.640625 C 11.078125 -33.140625 10.925781 -32.691406 10.625 -32.296875 L 10.125 -31.6875 L 8.890625 -32.34375 C 8.390625 -32.632812 7.972656 -32.78125 7.640625 -32.78125 C 7.566406 -32.78125 7.53125 -32.765625 7.53125 -32.734375 C 7.46875 -32.597656 7.40625 -27.59375 7.34375 -17.71875 L 7.28125 -10.28125 C 7.25 -8.550781 7.234375 -6.519531 7.234375 -4.1875 L 7.1875 -1.890625 C 7.15625 -1.191406 6.9375 -0.84375 6.53125 -0.84375 C 6.332031 -0.84375 6.164062 -0.894531 6.03125 -1 C 5.800781 -1.226562 5.6875 -3.523438 5.6875 -7.890625 Z M 5.6875 -7.890625 "/></g></g></g><g fill="#000000" fill-opacity="1"><g transform="translate(193.512543, 199.016523)"><g><path d="M 8.03125 -38.484375 C 8.132812 -38.710938 8.316406 -38.910156 8.578125 -39.078125 C 8.847656 -39.273438 9.132812 -39.375 9.4375 -39.375 C 9.769531 -39.375 10.035156 -39.257812 10.234375 -39.03125 C 10.398438 -38.832031 10.734375 -38.21875 11.234375 -37.1875 C 12.492188 -34.789062 14.039062 -33.09375 15.875 -32.09375 C 16.769531 -31.5625 17.21875 -31.113281 17.21875 -30.75 C 17.21875 -30.34375 16.867188 -29.34375 16.171875 -27.75 C 15.472656 -26.25 14.820312 -24.398438 14.21875 -22.203125 C 13.820312 -20.804688 13.191406 -18.046875 12.328125 -13.921875 C 11.359375 -9.265625 10.726562 -6.085938 10.4375 -4.390625 C 10.164062 -2.992188 9.945312 -2.097656 9.78125 -1.703125 C 9.507812 -1.234375 9.191406 -1 8.828125 -1 L 8.390625 -1.09375 C 8.015625 -1.195312 7.726562 -1.546875 7.53125 -2.140625 C 6.832031 -4.773438 6.21875 -8.003906 5.6875 -11.828125 C 5.289062 -14.328125 4.804688 -16.921875 4.234375 -19.609375 C 4.078125 -20.304688 3.332031 -24.066406 2 -30.890625 L 2 -31.140625 C 2 -31.535156 2.097656 -31.800781 2.296875 -31.9375 C 4.054688 -33.375 5.320312 -34.472656 6.09375 -35.234375 C 6.789062 -36.066406 7.304688 -36.863281 7.640625 -37.625 Z M 9.375 -35.234375 C 7.019531 -32.867188 5.675781 -31.554688 5.34375 -31.296875 L 4.484375 -30.640625 L 4.890625 -27.546875 C 4.992188 -26.679688 5.191406 -25.398438 5.484375 -23.703125 L 5.984375 -20.40625 L 6.140625 -19.359375 C 6.398438 -17.765625 6.734375 -15.570312 7.140625 -12.78125 C 7.304688 -11.113281 7.585938 -9.25 7.984375 -7.1875 C 8.316406 -5.320312 8.550781 -4.390625 8.6875 -4.390625 C 8.945312 -4.390625 9.773438 -8.484375 11.171875 -16.671875 C 11.835938 -20.722656 12.273438 -23.164062 12.484375 -24 C 12.679688 -25.03125 13.144531 -26.429688 13.875 -28.203125 C 14.238281 -29.296875 14.421875 -29.894531 14.421875 -30 L 14.375 -30.140625 C 14.039062 -30.378906 13.523438 -30.765625 12.828125 -31.296875 C 11.960938 -31.921875 11.164062 -32.75 10.4375 -33.78125 Z M 9.375 -35.234375 "/></g></g></g></svg>