<svg xmlns="http://www.w3.org/2000/svg" xmlns:xlink="http://www.w3.org/1999/xlink" width="60" zoomAndPan="magnify" viewBox="0 0 45 30.000001" height="40" preserveAspectRatio="xMidYMid meet" version="1.0"><defs><g/></defs><g fill="#8cd918" fill-opacity="1"><g transform="translate(12.779559, 26.857185)"><g><path d="M 4.015625 -21.921875 C 4.128906 -22.035156 4.25 -22.09375 4.375 -22.09375 C 4.613281 -22.09375 5.007812 -21.757812 5.5625 -21.09375 C 5.914062 -20.675781 6.457031 -20.054688 7.1875 -19.234375 C 7.757812 -18.660156 8.046875 -18.316406 8.046875 -18.203125 C 8.046875 -18.148438 7.960938 -18.015625 7.796875 -17.796875 C 7.671875 -17.628906 7.53125 -17.546875 7.375 -17.546875 C 7.070312 -17.546875 6.53125 -17.957031 5.75 -18.78125 L 4.703125 -19.9375 L 4.21875 -19.03125 C 4.050781 -18.71875 3.671875 -18.160156 3.078125 -17.359375 L 2.5 -16.5625 L 2.78125 -14.65625 C 2.78125 -14.65625 2.851562 -14.1875 3 -13.25 L 3.421875 -10.46875 C 3.578125 -9.21875 3.851562 -7.601562 4.25 -5.625 C 4.59375 -3.675781 4.820312 -2.523438 4.9375 -2.171875 C 5.007812 -1.992188 5.070312 -1.988281 5.125 -2.15625 L 5.125 -2.171875 C 5.289062 -2.671875 5.691406 -5.125 6.328125 -9.53125 C 6.796875 -12.78125 7.203125 -14.632812 7.546875 -15.09375 C 7.660156 -15.257812 7.816406 -15.34375 8.015625 -15.34375 C 8.179688 -15.300781 8.335938 -15.238281 8.484375 -15.15625 C 8.679688 -15.007812 8.765625 -14.890625 8.734375 -14.796875 C 8.179688 -12.566406 7.726562 -10.609375 7.375 -8.921875 C 6.675781 -5.617188 6.203125 -3.285156 5.953125 -1.921875 C 5.785156 -1.023438 5.664062 -0.53125 5.59375 -0.4375 C 5.425781 -0.1875 5.175781 -0.0507812 4.84375 -0.03125 C 4.769531 -0.03125 4.722656 -0.0390625 4.703125 -0.0625 C 4.503906 -0.144531 4.1875 -1.269531 3.75 -3.4375 C 3.601562 -4.28125 3.351562 -5.375 3 -6.71875 C 2.59375 -8.445312 2.097656 -10.953125 1.515625 -14.234375 L 1.109375 -16.46875 L 1.109375 -16.640625 C 1.109375 -16.835938 1.253906 -17.113281 1.546875 -17.46875 C 2.097656 -18.164062 2.609375 -18.9375 3.078125 -19.78125 C 3.597656 -20.644531 3.859375 -21.222656 3.859375 -21.515625 C 3.859375 -21.679688 3.910156 -21.816406 4.015625 -21.921875 Z M 4.015625 -21.921875 "/></g></g></g><g fill="#8cd918" fill-opacity="1"><g transform="translate(22.613707, 26.857185)"><g><path d="M 0.984375 -21.328125 C 1.117188 -21.453125 1.25 -21.515625 1.375 -21.515625 C 1.59375 -21.515625 1.925781 -21.347656 2.375 -21.015625 C 2.957031 -20.597656 3.535156 -20.390625 4.109375 -20.390625 C 4.378906 -20.390625 4.679688 -20.429688 5.015625 -20.515625 C 5.421875 -20.648438 5.734375 -20.804688 5.953125 -20.984375 C 6.117188 -21.148438 6.3125 -21.234375 6.53125 -21.234375 C 6.769531 -21.234375 6.925781 -21.148438 7 -20.984375 C 7.019531 -20.984375 7.03125 -20.941406 7.03125 -20.859375 C 7.03125 -20.429688 6.742188 -19.113281 6.171875 -16.90625 C 5.546875 -14.425781 5.234375 -13.078125 5.234375 -12.859375 C 5.234375 -12.753906 5.351562 -12.632812 5.59375 -12.5 C 5.925781 -12.351562 6.128906 -12.289062 6.203125 -12.3125 C 6.367188 -12.3125 6.515625 -12.53125 6.640625 -12.96875 C 6.878906 -13.65625 7.164062 -14 7.5 -14 C 7.570312 -14 7.613281 -13.988281 7.625 -13.96875 C 7.863281 -13.914062 7.984375 -13.773438 7.984375 -13.546875 C 7.984375 -13.304688 7.820312 -12.867188 7.5 -12.234375 C 7.09375 -11.398438 6.832031 -10.984375 6.71875 -10.984375 L 6.671875 -10.984375 C 6.441406 -10.984375 6.132812 -11.078125 5.75 -11.265625 C 5.21875 -11.503906 4.925781 -11.625 4.875 -11.625 C 4.84375 -11.625 4.476562 -10.285156 3.78125 -7.609375 C 3.039062 -4.796875 2.691406 -3.332031 2.734375 -3.21875 C 2.734375 -3.21875 2.734375 -3.210938 2.734375 -3.203125 C 2.742188 -3.203125 2.75 -3.203125 2.75 -3.203125 C 2.789062 -3.203125 2.847656 -3.222656 2.921875 -3.265625 C 2.992188 -3.304688 3.054688 -3.347656 3.109375 -3.390625 C 3.367188 -3.628906 3.609375 -3.785156 3.828125 -3.859375 C 4.023438 -3.929688 4.335938 -3.96875 4.765625 -3.96875 C 5.242188 -3.96875 5.65625 -3.882812 6 -3.71875 C 6.113281 -3.664062 6.5 -3.363281 7.15625 -2.8125 L 7.90625 -2.234375 L 7.9375 -2.234375 L 7.9375 -2.34375 C 7.957031 -2.363281 7.96875 -2.398438 7.96875 -2.453125 C 7.96875 -2.710938 7.945312 -3.023438 7.90625 -3.390625 C 7.832031 -3.609375 7.796875 -4.472656 7.796875 -5.984375 L 7.796875 -6.359375 C 7.796875 -7.023438 7.867188 -7.382812 8.015625 -7.4375 C 8.035156 -7.457031 8.0625 -7.46875 8.09375 -7.46875 C 8.1875 -7.46875 8.289062 -7.410156 8.40625 -7.296875 C 8.5 -7.203125 8.582031 -6.570312 8.65625 -5.40625 C 8.726562 -4.445312 8.765625 -3.234375 8.765625 -1.765625 L 8.765625 -0.6875 L 8.3125 -0.75 C 7.988281 -0.78125 7.742188 -0.898438 7.578125 -1.109375 C 7.410156 -1.359375 7.085938 -1.734375 6.609375 -2.234375 C 6.191406 -2.648438 5.898438 -2.894531 5.734375 -2.96875 C 5.492188 -3.101562 5.171875 -3.171875 4.765625 -3.171875 C 4.109375 -3.171875 3.472656 -2.773438 2.859375 -1.984375 L 2.015625 -0.90625 C 1.804688 -0.644531 1.664062 -0.515625 1.59375 -0.515625 C 1.5625 -0.515625 1.5 -0.5625 1.40625 -0.65625 C 1.332031 -0.726562 1.296875 -0.832031 1.296875 -0.96875 C 1.296875 -1.113281 1.488281 -1.921875 1.875 -3.390625 C 2.5 -5.753906 3.015625 -7.929688 3.421875 -9.921875 L 3.859375 -12.03125 L 3.578125 -12.234375 C 3.523438 -12.253906 3.34375 -12.253906 3.03125 -12.234375 C 2.90625 -12.234375 2.84375 -12.160156 2.84375 -12.015625 C 2.84375 -11.773438 2.785156 -11.597656 2.671875 -11.484375 C 2.578125 -11.378906 2.441406 -11.328125 2.265625 -11.328125 L 2.203125 -11.328125 C 2.085938 -11.328125 1.988281 -11.414062 1.90625 -11.59375 C 1.738281 -11.90625 1.632812 -12.242188 1.59375 -12.609375 C 1.59375 -12.992188 1.601562 -13.289062 1.625 -13.5 C 1.625 -13.644531 1.648438 -13.753906 1.703125 -13.828125 C 1.816406 -13.953125 1.945312 -14.015625 2.09375 -14.015625 C 2.363281 -14.015625 2.734375 -13.894531 3.203125 -13.65625 C 3.492188 -13.476562 3.773438 -13.390625 4.046875 -13.390625 L 4.078125 -13.390625 C 4.097656 -13.367188 4.316406 -14.285156 4.734375 -16.140625 C 5.140625 -17.941406 5.34375 -18.914062 5.34375 -19.0625 C 5.34375 -19.15625 4.957031 -19.203125 4.1875 -19.203125 C 3.394531 -19.203125 2.910156 -19.21875 2.734375 -19.25 C 2.710938 -19.269531 2.671875 -19.28125 2.609375 -19.28125 C 2.523438 -19.28125 2.484375 -19.21875 2.484375 -19.09375 C 2.484375 -18.945312 2.488281 -18.820312 2.5 -18.71875 C 2.519531 -18.613281 2.53125 -18.523438 2.53125 -18.453125 C 2.53125 -18.378906 2.539062 -18.328125 2.5625 -18.296875 L 2.5625 -18.09375 C 2.519531 -17.5625 2.304688 -17.296875 1.921875 -17.296875 C 1.742188 -17.296875 1.597656 -17.398438 1.484375 -17.609375 C 1.359375 -17.828125 1.238281 -18.382812 1.125 -19.28125 C 1.019531 -20.019531 0.929688 -20.507812 0.859375 -20.75 C 0.835938 -20.78125 0.828125 -20.832031 0.828125 -20.90625 C 0.828125 -21.070312 0.878906 -21.210938 0.984375 -21.328125 Z M 0.984375 -21.328125 "/></g></g></g></svg>