<svg xmlns="http://www.w3.org/2000/svg" xmlns:xlink="http://www.w3.org/1999/xlink" width="225" zoomAndPan="magnify" viewBox="0 0 168.75 60" height="80" preserveAspectRatio="xMidYMid meet" version="1.0"><defs><g/></defs><g fill="#8cd918" fill-opacity="1"><g transform="translate(0.480469, 55.294639)"><g><path d="M 7.296875 -39.796875 C 7.492188 -39.992188 7.710938 -40.09375 7.953125 -40.09375 C 8.378906 -40.09375 9.09375 -39.492188 10.09375 -38.296875 C 10.726562 -37.535156 11.710938 -36.40625 13.046875 -34.90625 C 14.078125 -33.863281 14.59375 -33.242188 14.59375 -33.046875 C 14.59375 -32.953125 14.445312 -32.703125 14.15625 -32.296875 C 13.914062 -31.992188 13.664062 -31.84375 13.40625 -31.84375 C 12.832031 -31.84375 11.847656 -32.59375 10.453125 -34.09375 L 8.546875 -36.203125 L 7.65625 -34.546875 C 7.351562 -33.984375 6.664062 -32.96875 5.59375 -31.5 L 4.546875 -30.046875 L 5.046875 -26.59375 C 5.046875 -26.59375 5.179688 -25.742188 5.453125 -24.046875 L 6.203125 -19 C 6.503906 -16.726562 7.003906 -13.796875 7.703125 -10.203125 C 8.335938 -6.671875 8.753906 -4.585938 8.953125 -3.953125 C 9.085938 -3.617188 9.203125 -3.601562 9.296875 -3.90625 L 9.296875 -3.953125 C 9.597656 -4.847656 10.332031 -9.296875 11.5 -17.296875 C 12.332031 -23.203125 13.066406 -26.570312 13.703125 -27.40625 C 13.898438 -27.695312 14.179688 -27.84375 14.546875 -27.84375 C 14.847656 -27.78125 15.132812 -27.664062 15.40625 -27.5 C 15.769531 -27.226562 15.914062 -27.007812 15.84375 -26.84375 C 14.84375 -22.8125 14.03125 -19.265625 13.40625 -16.203125 C 12.132812 -10.203125 11.265625 -5.96875 10.796875 -3.5 C 10.492188 -1.863281 10.28125 -0.960938 10.15625 -0.796875 C 9.851562 -0.328125 9.398438 -0.078125 8.796875 -0.046875 C 8.660156 -0.046875 8.578125 -0.0625 8.546875 -0.09375 C 8.179688 -0.257812 7.597656 -2.3125 6.796875 -6.25 C 6.535156 -7.78125 6.085938 -9.765625 5.453125 -12.203125 C 4.710938 -15.335938 3.8125 -19.882812 2.75 -25.84375 L 2 -29.90625 L 2 -30.203125 C 2 -30.566406 2.265625 -31.066406 2.796875 -31.703125 C 3.796875 -32.960938 4.726562 -34.363281 5.59375 -35.90625 C 6.53125 -37.46875 7 -38.515625 7 -39.046875 C 7 -39.347656 7.097656 -39.597656 7.296875 -39.796875 Z M 7.296875 -39.796875 "/></g></g></g><g fill="#8cd918" fill-opacity="1"><g transform="translate(18.327699, 55.294639)"><g><path d="M 2.546875 -38.84375 C 2.785156 -39.28125 3.15625 -39.53125 3.65625 -39.59375 C 3.820312 -39.59375 4.019531 -39.53125 4.25 -39.40625 C 4.351562 -39.363281 4.4375 -39.226562 4.5 -39 C 4.5625 -38.800781 4.613281 -38.332031 4.65625 -37.59375 C 4.6875 -37.03125 4.703125 -35.800781 4.703125 -33.90625 L 4.65625 -22.546875 L 4.546875 -4.5 L 5.203125 -5.203125 C 5.628906 -5.628906 6.242188 -5.84375 7.046875 -5.84375 C 8.179688 -5.84375 9.265625 -5.328125 10.296875 -4.296875 C 10.566406 -4.066406 10.769531 -4.019531 10.90625 -4.15625 C 11 -4.25 11.03125 -4.894531 11 -6.09375 C 10.695312 -10.757812 10.546875 -13.476562 10.546875 -14.25 C 10.410156 -17.613281 10.34375 -23.53125 10.34375 -32 L 10.34375 -34.59375 C 10.34375 -36.894531 10.394531 -38.210938 10.5 -38.546875 C 10.664062 -39.117188 11.015625 -39.421875 11.546875 -39.453125 C 11.742188 -39.453125 11.960938 -39.382812 12.203125 -39.25 L 12.75 -39 L 12.5 -30.75 C 12.300781 -24.050781 12.203125 -17.566406 12.203125 -11.296875 L 12.203125 -9.25 L 12.25 -6.75 L 12.40625 -2.546875 C 12.40625 -1.546875 12.238281 -1.046875 11.90625 -1.046875 C 11.695312 -1.046875 11.226562 -1.414062 10.5 -2.15625 C 8.9375 -3.613281 7.785156 -4.34375 7.046875 -4.34375 C 6.742188 -4.34375 6.3125 -4.046875 5.75 -3.453125 C 5.1875 -2.816406 4.753906 -2.234375 4.453125 -1.703125 C 4.210938 -1.265625 3.945312 -1.046875 3.65625 -1.046875 L 3.5 -1.046875 C 3.300781 -1.046875 3.164062 -1.179688 3.09375 -1.453125 C 3.03125 -1.816406 2.96875 -3.929688 2.90625 -7.796875 L 2.703125 -27.25 C 2.671875 -28.382812 2.617188 -31.71875 2.546875 -37.25 C 2.515625 -38.28125 2.515625 -38.8125 2.546875 -38.84375 Z M 2.546875 -38.84375 "/></g></g></g><g fill="#8cd918" fill-opacity="1"><g transform="translate(33.575336, 55.294639)"><g><path d="M 8.09375 -39.203125 C 8.46875 -39.566406 8.753906 -39.75 8.953125 -39.75 C 9.285156 -39.75 9.785156 -39.265625 10.453125 -38.296875 C 11.453125 -36.898438 12.601562 -35.851562 13.90625 -35.15625 C 14.769531 -34.65625 15.203125 -34.15625 15.203125 -33.65625 C 15.203125 -33.445312 15.101562 -33.242188 14.90625 -33.046875 C 14.695312 -32.847656 14.445312 -32.75 14.15625 -32.75 C 13.050781 -32.75 11.847656 -33.332031 10.546875 -34.5 C 9.910156 -35.0625 9.507812 -35.34375 9.34375 -35.34375 C 9.175781 -35.34375 8.476562 -34.878906 7.25 -33.953125 L 5.40625 -32.546875 L 6.046875 -32 C 7.316406 -30.96875 8.984375 -30.453125 11.046875 -30.453125 C 12.710938 -30.453125 14.210938 -30.832031 15.546875 -31.59375 C 16.148438 -31.96875 16.664062 -32.15625 17.09375 -32.15625 C 17.394531 -32.15625 17.613281 -32.070312 17.75 -31.90625 C 17.945312 -31.769531 18.046875 -31.550781 18.046875 -31.25 C 18.046875 -30.851562 17.8125 -30.1875 17.34375 -29.25 C 16.675781 -27.75 16.160156 -26.132812 15.796875 -24.40625 C 15.429688 -22.96875 14.898438 -19.929688 14.203125 -15.296875 C 13.265625 -8.992188 12.644531 -5.144531 12.34375 -3.75 C 11.976562 -2.082031 11.628906 -1.25 11.296875 -1.25 C 11.160156 -1.25 10.960938 -1.347656 10.703125 -1.546875 C 10.460938 -1.785156 9.628906 -4.40625 8.203125 -9.40625 C 6.734375 -14.5 5.648438 -18.5 4.953125 -21.40625 C 4.546875 -23.195312 4.34375 -24.296875 4.34375 -24.703125 C 4.34375 -25.066406 4.410156 -25.300781 4.546875 -25.40625 C 4.679688 -25.53125 4.929688 -25.59375 5.296875 -25.59375 C 5.734375 -25.59375 6.019531 -25.425781 6.15625 -25.09375 C 6.28125 -24.894531 6.476562 -24.015625 6.75 -22.453125 C 7.25 -19.453125 8.015625 -15.914062 9.046875 -11.84375 C 10.148438 -7.582031 10.800781 -5.453125 11 -5.453125 C 11.101562 -5.453125 11.40625 -7.132812 11.90625 -10.5 C 12.40625 -13.800781 12.753906 -16.566406 12.953125 -18.796875 C 13.453125 -23.328125 13.867188 -26.0625 14.203125 -27 L 14.59375 -28.40625 C 14.59375 -28.4375 14.546875 -28.453125 14.453125 -28.453125 C 13.753906 -28.453125 13.085938 -28.382812 12.453125 -28.25 C 11.753906 -28.144531 11.15625 -28.09375 10.65625 -28.09375 C 10.15625 -28.09375 9.550781 -28.195312 8.84375 -28.40625 C 6.675781 -28.96875 4.878906 -29.863281 3.453125 -31.09375 C 2.953125 -31.5 2.566406 -31.851562 2.296875 -32.15625 C 2.097656 -32.414062 2 -32.679688 2 -32.953125 C 2 -33.484375 2.25 -33.863281 2.75 -34.09375 C 4.914062 -35.300781 6.398438 -36.269531 7.203125 -37 C 7.566406 -37.4375 7.75 -37.753906 7.75 -37.953125 C 7.75 -38.046875 7.734375 -38.113281 7.703125 -38.15625 L 7.703125 -38.453125 C 7.703125 -38.710938 7.832031 -38.960938 8.09375 -39.203125 Z M 8.09375 -39.203125 "/></g></g></g><g fill="#8cd918" fill-opacity="1"><g transform="translate(53.622235, 55.294639)"><g><path d="M 6.5 -7.40625 C 6.300781 -11.800781 6.164062 -15.597656 6.09375 -18.796875 L 5.84375 -29.25 L 5.84375 -35.15625 L 4.546875 -35.65625 L 3.65625 -36.09375 C 3.414062 -36.09375 3.296875 -35.675781 3.296875 -34.84375 C 3.296875 -34.113281 3.210938 -33.613281 3.046875 -33.34375 C 2.910156 -33.113281 2.628906 -33 2.203125 -33 C 1.796875 -33 1.507812 -33.195312 1.34375 -33.59375 C 1.3125 -33.800781 1.210938 -34.703125 1.046875 -36.296875 C 1.015625 -36.566406 1 -37.035156 1 -37.703125 C 1 -38.460938 1.097656 -38.960938 1.296875 -39.203125 C 1.429688 -39.429688 1.800781 -39.546875 2.40625 -39.546875 C 3.332031 -39.546875 4.695312 -38.894531 6.5 -37.59375 C 8.664062 -35.96875 9.78125 -35.1875 9.84375 -35.25 C 10.21875 -35.25 10.519531 -35.800781 10.75 -36.90625 C 11.019531 -38.164062 11.238281 -38.894531 11.40625 -39.09375 C 11.664062 -39.46875 11.960938 -39.65625 12.296875 -39.65625 C 12.734375 -39.613281 13.035156 -39.410156 13.203125 -39.046875 L 13.34375 -38.40625 C 13.28125 -37.363281 13.195312 -36.726562 13.09375 -36.5 C 12.5625 -35.46875 12.296875 -34.519531 12.296875 -33.65625 C 12.296875 -33.082031 12.144531 -32.613281 11.84375 -32.25 L 11.34375 -31.703125 L 10.15625 -32.34375 C 8.945312 -32.914062 8.328125 -33.203125 8.296875 -33.203125 C 8.234375 -33.203125 8.203125 -33.1875 8.203125 -33.15625 C 8.203125 -29.488281 8.132812 -24.46875 8 -18.09375 L 7.90625 -12.84375 L 7.953125 -10.65625 C 8.015625 -8.851562 8.046875 -7.5 8.046875 -6.59375 L 8 -3.75 C 7.96875 -2.3125 7.96875 -1.546875 8 -1.453125 C 7.9375 -0.710938 7.71875 -0.34375 7.34375 -0.34375 C 7.175781 -0.34375 6.992188 -0.410156 6.796875 -0.546875 C 6.734375 -0.617188 6.632812 -2.90625 6.5 -7.40625 Z M 6.5 -7.40625 "/></g></g></g><g fill="#8cd918" fill-opacity="1"><g transform="translate(67.970012, 55.294639)"><g><path d="M 7.90625 -38.65625 C 8.132812 -39.050781 8.265625 -39.332031 8.296875 -39.5 C 8.328125 -39.632812 8.507812 -39.832031 8.84375 -40.09375 C 9.113281 -40.300781 9.398438 -40.40625 9.703125 -40.40625 C 10.035156 -40.40625 10.300781 -40.285156 10.5 -40.046875 C 10.800781 -39.546875 11.132812 -38.929688 11.5 -38.203125 C 12.53125 -36.171875 14.082031 -34.550781 16.15625 -33.34375 C 17.050781 -32.8125 17.5 -32.363281 17.5 -32 C 17.5 -31.5 17.148438 -30.515625 16.453125 -29.046875 C 15.816406 -27.710938 15.164062 -25.765625 14.5 -23.203125 C 13.601562 -20.035156 12.988281 -17.203125 12.65625 -14.703125 C 12.019531 -9.960938 11.4375 -6.242188 10.90625 -3.546875 C 10.632812 -2.148438 10.414062 -1.25 10.25 -0.84375 C 10.050781 -0.382812 9.75 -0.15625 9.34375 -0.15625 L 8.84375 -0.25 C 8.476562 -0.351562 8.195312 -0.703125 8 -1.296875 C 7.4375 -3.535156 6.753906 -7.367188 5.953125 -12.796875 C 5.546875 -15.492188 5.0625 -18.09375 4.5 -20.59375 C 2.894531 -27.664062 2.0625 -31.398438 2 -31.796875 L 2 -32 C 2 -32.394531 2.097656 -32.660156 2.296875 -32.796875 C 4.867188 -34.867188 6.21875 -36.019531 6.34375 -36.25 C 7.007812 -37.3125 7.53125 -38.113281 7.90625 -38.65625 Z M 9.65625 -36.25 C 7.050781 -33.644531 5.695312 -32.328125 5.59375 -32.296875 L 4.453125 -31.703125 L 5.15625 -28.546875 C 5.1875 -28.378906 5.273438 -27.828125 5.421875 -26.890625 C 5.578125 -25.960938 5.851562 -24.132812 6.25 -21.40625 L 7.40625 -13.75 C 7.632812 -10.882812 7.984375 -8.414062 8.453125 -6.34375 C 8.921875 -4.34375 9.171875 -3.410156 9.203125 -3.546875 L 11.453125 -17.65625 C 11.878906 -20.613281 12.3125 -23.0625 12.75 -25 C 12.882812 -25.5625 13.351562 -26.960938 14.15625 -29.203125 C 14.582031 -30.335938 14.765625 -30.9375 14.703125 -31 L 14.65625 -31.15625 L 13.09375 -32.296875 C 12.164062 -32.960938 11.367188 -33.796875 10.703125 -34.796875 Z M 9.65625 -36.25 "/></g></g></g><g fill="#8cd918" fill-opacity="1"><g transform="translate(87.466989, 55.294639)"><g><path d="M 4.953125 -38.953125 C 5.179688 -39.347656 5.546875 -39.546875 6.046875 -39.546875 C 6.546875 -39.546875 6.863281 -39.363281 7 -39 C 7.101562 -38.632812 7.351562 -37.316406 7.75 -35.046875 C 8.082031 -32.710938 8.316406 -31.460938 8.453125 -31.296875 L 8.546875 -31.203125 C 8.847656 -31.203125 9.28125 -32.882812 9.84375 -36.25 C 10.113281 -38.050781 10.316406 -39.050781 10.453125 -39.25 C 10.585938 -39.445312 10.785156 -39.546875 11.046875 -39.546875 C 11.546875 -39.546875 11.960938 -39.296875 12.296875 -38.796875 C 12.628906 -38.367188 12.929688 -36.785156 13.203125 -34.046875 C 13.460938 -31.242188 13.742188 -27.226562 14.046875 -22 C 14.242188 -17.863281 15.128906 -12.0625 16.703125 -4.59375 C 17.066406 -3 17.25 -1.898438 17.25 -1.296875 C 17.25 -1.128906 17.234375 -1.015625 17.203125 -0.953125 C 17.066406 -0.753906 16.914062 -0.65625 16.75 -0.65625 C 16.351562 -0.65625 15.988281 -1.382812 15.65625 -2.84375 C 15.320312 -4.082031 14.753906 -6.816406 13.953125 -11.046875 C 13.117188 -15.410156 12.632812 -18.113281 12.5 -19.15625 C 12.332031 -20.15625 12.113281 -22.15625 11.84375 -25.15625 C 11.476562 -28.882812 11.25 -30.78125 11.15625 -30.84375 L 11.09375 -30.84375 C 10.925781 -30.84375 10.726562 -30.3125 10.5 -29.25 C 10.269531 -28.144531 10.050781 -27.425781 9.84375 -27.09375 C 9.675781 -26.800781 9.363281 -26.601562 8.90625 -26.5 L 8.5 -26.5 C 8.101562 -26.5 7.800781 -26.664062 7.59375 -27 C 7.363281 -27.269531 7.113281 -27.882812 6.84375 -28.84375 C 6.550781 -29.84375 6.320312 -30.34375 6.15625 -30.34375 C 6.050781 -30.34375 6 -30.226562 6 -30 L 5.703125 -26.5 C 5.203125 -22.332031 4.816406 -17.28125 4.546875 -11.34375 C 4.378906 -6.8125 4.210938 -3.960938 4.046875 -2.796875 C 3.878906 -1.796875 3.765625 -1.210938 3.703125 -1.046875 C 3.597656 -0.785156 3.414062 -0.65625 3.15625 -0.65625 L 3 -0.65625 C 2.664062 -0.65625 2.5 -0.921875 2.5 -1.453125 C 2.5 -1.921875 2.550781 -2.46875 2.65625 -3.09375 C 2.78125 -4 2.945312 -7.9375 3.15625 -14.90625 C 3.351562 -21.695312 3.5 -25.492188 3.59375 -26.296875 L 3.953125 -30.953125 L 4.453125 -36.59375 C 4.617188 -37.925781 4.785156 -38.710938 4.953125 -38.953125 Z M 4.953125 -38.953125 "/></g></g></g><g fill="#8cd918" fill-opacity="1"><g transform="translate(105.714168, 55.294639)"><g><path d="M 1.796875 -38.703125 C 2.035156 -38.929688 2.269531 -39.046875 2.5 -39.046875 C 2.894531 -39.046875 3.492188 -38.75 4.296875 -38.15625 C 5.367188 -37.382812 6.421875 -37 7.453125 -37 C 7.953125 -37 8.5 -37.082031 9.09375 -37.25 C 9.832031 -37.476562 10.398438 -37.757812 10.796875 -38.09375 C 11.097656 -38.394531 11.445312 -38.546875 11.84375 -38.546875 C 12.28125 -38.546875 12.566406 -38.394531 12.703125 -38.09375 C 12.734375 -38.09375 12.75 -38.007812 12.75 -37.84375 C 12.75 -37.082031 12.234375 -34.703125 11.203125 -30.703125 C 10.066406 -26.203125 9.5 -23.75 9.5 -23.34375 C 9.5 -23.144531 9.71875 -22.929688 10.15625 -22.703125 C 10.75 -22.429688 11.113281 -22.3125 11.25 -22.34375 C 11.550781 -22.34375 11.816406 -22.742188 12.046875 -23.546875 C 12.484375 -24.785156 13 -25.40625 13.59375 -25.40625 C 13.726562 -25.40625 13.8125 -25.382812 13.84375 -25.34375 C 14.28125 -25.25 14.5 -25 14.5 -24.59375 C 14.5 -24.164062 14.195312 -23.367188 13.59375 -22.203125 C 12.863281 -20.703125 12.398438 -19.953125 12.203125 -19.953125 L 12.09375 -19.953125 C 11.695312 -19.953125 11.148438 -20.117188 10.453125 -20.453125 C 9.484375 -20.878906 8.945312 -21.09375 8.84375 -21.09375 C 8.78125 -21.09375 8.113281 -18.660156 6.84375 -13.796875 C 5.507812 -8.703125 4.878906 -6.050781 4.953125 -5.84375 C 4.953125 -5.84375 4.957031 -5.832031 4.96875 -5.8125 C 4.988281 -5.800781 5 -5.796875 5 -5.796875 C 5.0625 -5.796875 5.160156 -5.835938 5.296875 -5.921875 C 5.429688 -6.003906 5.550781 -6.082031 5.65625 -6.15625 C 6.113281 -6.582031 6.546875 -6.863281 6.953125 -7 C 7.316406 -7.132812 7.882812 -7.203125 8.65625 -7.203125 C 9.519531 -7.203125 10.269531 -7.050781 10.90625 -6.75 C 11.101562 -6.644531 11.800781 -6.09375 13 -5.09375 L 14.34375 -4.046875 L 14.40625 -4.046875 L 14.40625 -4.25 C 14.4375 -4.28125 14.453125 -4.347656 14.453125 -4.453125 C 14.453125 -4.921875 14.414062 -5.488281 14.34375 -6.15625 C 14.21875 -6.550781 14.15625 -8.113281 14.15625 -10.84375 L 14.15625 -11.546875 C 14.15625 -12.742188 14.285156 -13.394531 14.546875 -13.5 C 14.578125 -13.53125 14.628906 -13.546875 14.703125 -13.546875 C 14.867188 -13.546875 15.050781 -13.445312 15.25 -13.25 C 15.414062 -13.082031 15.566406 -11.929688 15.703125 -9.796875 C 15.835938 -8.066406 15.90625 -5.867188 15.90625 -3.203125 L 15.90625 -1.25 L 15.09375 -1.34375 C 14.5 -1.414062 14.050781 -1.632812 13.75 -2 C 13.445312 -2.46875 12.863281 -3.148438 12 -4.046875 C 11.226562 -4.816406 10.695312 -5.269531 10.40625 -5.40625 C 9.96875 -5.632812 9.382812 -5.75 8.65625 -5.75 C 7.445312 -5.75 6.296875 -5.03125 5.203125 -3.59375 L 3.65625 -1.65625 C 3.28125 -1.1875 3.03125 -0.953125 2.90625 -0.953125 C 2.832031 -0.953125 2.710938 -1.035156 2.546875 -1.203125 C 2.410156 -1.335938 2.34375 -1.519531 2.34375 -1.75 C 2.34375 -2.019531 2.695312 -3.488281 3.40625 -6.15625 C 4.53125 -10.445312 5.460938 -14.394531 6.203125 -18 L 7 -21.84375 L 6.5 -22.203125 C 6.394531 -22.234375 6.0625 -22.234375 5.5 -22.203125 C 5.269531 -22.203125 5.15625 -22.066406 5.15625 -21.796875 C 5.15625 -21.367188 5.050781 -21.050781 4.84375 -20.84375 C 4.675781 -20.644531 4.425781 -20.546875 4.09375 -20.546875 L 4 -20.546875 C 3.800781 -20.546875 3.617188 -20.710938 3.453125 -21.046875 C 3.148438 -21.617188 2.96875 -22.238281 2.90625 -22.90625 C 2.90625 -23.601562 2.921875 -24.132812 2.953125 -24.5 C 2.953125 -24.769531 3 -24.96875 3.09375 -25.09375 C 3.300781 -25.332031 3.535156 -25.453125 3.796875 -25.453125 C 4.296875 -25.453125 4.960938 -25.234375 5.796875 -24.796875 C 6.328125 -24.460938 6.84375 -24.296875 7.34375 -24.296875 L 7.40625 -24.296875 C 7.4375 -24.265625 7.832031 -25.929688 8.59375 -29.296875 C 9.332031 -32.566406 9.703125 -34.332031 9.703125 -34.59375 C 9.703125 -34.757812 9 -34.84375 7.59375 -34.84375 C 6.164062 -34.84375 5.285156 -34.878906 4.953125 -34.953125 C 4.921875 -34.984375 4.851562 -35 4.75 -35 C 4.582031 -35 4.5 -34.882812 4.5 -34.65625 C 4.5 -34.382812 4.515625 -34.15625 4.546875 -33.96875 C 4.578125 -33.789062 4.59375 -33.632812 4.59375 -33.5 C 4.59375 -33.363281 4.613281 -33.265625 4.65625 -33.203125 L 4.65625 -32.84375 C 4.582031 -31.882812 4.195312 -31.40625 3.5 -31.40625 C 3.164062 -31.40625 2.898438 -31.585938 2.703125 -31.953125 C 2.460938 -32.347656 2.242188 -33.363281 2.046875 -35 C 1.847656 -36.332031 1.679688 -37.21875 1.546875 -37.65625 C 1.515625 -37.71875 1.5 -37.816406 1.5 -37.953125 C 1.5 -38.253906 1.597656 -38.503906 1.796875 -38.703125 Z M 1.796875 -38.703125 "/></g></g></g><g fill="#8cd918" fill-opacity="1"><g transform="translate(123.111474, 55.294639)"><g><path d="M 3 -39.796875 C 3.195312 -39.992188 3.429688 -40.09375 3.703125 -40.09375 C 4.066406 -40.09375 4.515625 -39.863281 5.046875 -39.40625 L 5.703125 -38.65625 L 6.5 -39.296875 C 7.03125 -39.660156 7.414062 -39.84375 7.65625 -39.84375 C 7.882812 -39.84375 8.132812 -39.710938 8.40625 -39.453125 C 8.664062 -39.179688 8.796875 -38.914062 8.796875 -38.65625 C 8.796875 -38.25 8.597656 -37.847656 8.203125 -37.453125 C 7.796875 -37.046875 7.59375 -36.757812 7.59375 -36.59375 C 7.59375 -36.394531 7.742188 -36.144531 8.046875 -35.84375 C 8.453125 -35.445312 8.65625 -35.03125 8.65625 -34.59375 C 8.65625 -34.332031 8.570312 -34.082031 8.40625 -33.84375 C 8.195312 -33.644531 7.925781 -33.546875 7.59375 -33.546875 L 6.84375 -33.546875 L 6.84375 -29.59375 C 6.675781 -16.226562 6.5625 -8.3125 6.5 -5.84375 C 6.394531 -2.3125 6.257812 -0.5 6.09375 -0.40625 C 5.925781 -0.269531 5.757812 -0.203125 5.59375 -0.203125 C 5.257812 -0.203125 5.078125 -0.519531 5.046875 -1.15625 C 4.953125 -1.75 4.90625 -2.945312 4.90625 -4.75 L 4.90625 -9.296875 C 4.90625 -13.492188 4.820312 -17.863281 4.65625 -22.40625 L 4.40625 -30.953125 L 4.34375 -33.546875 L 3.703125 -33.546875 C 2.898438 -33.546875 2.5 -33.878906 2.5 -34.546875 C 2.5 -35.046875 2.734375 -35.53125 3.203125 -36 L 3.953125 -36.75 L 3.296875 -37.5 C 2.898438 -38 2.703125 -38.5 2.703125 -39 C 2.703125 -39.332031 2.800781 -39.597656 3 -39.796875 Z M 5.90625 -34.40625 C 5.664062 -34.632812 5.53125 -34.75 5.5 -34.75 C 5.394531 -34.6875 5.28125 -34.570312 5.15625 -34.40625 C 5.019531 -34.269531 4.984375 -34.164062 5.046875 -34.09375 C 5.078125 -34.0625 5.226562 -34.046875 5.5 -34.046875 C 5.800781 -34.046875 5.96875 -34.0625 6 -34.09375 C 6.03125 -34.132812 6 -34.238281 5.90625 -34.40625 Z M 5.90625 -34.40625 "/></g></g></g><g fill="#8cd918" fill-opacity="1"><g transform="translate(134.409721, 55.294639)"><g><path d="M 6.5 -7.40625 C 6.300781 -11.800781 6.164062 -15.597656 6.09375 -18.796875 L 5.84375 -29.25 L 5.84375 -35.15625 L 4.546875 -35.65625 L 3.65625 -36.09375 C 3.414062 -36.09375 3.296875 -35.675781 3.296875 -34.84375 C 3.296875 -34.113281 3.210938 -33.613281 3.046875 -33.34375 C 2.910156 -33.113281 2.628906 -33 2.203125 -33 C 1.796875 -33 1.507812 -33.195312 1.34375 -33.59375 C 1.3125 -33.800781 1.210938 -34.703125 1.046875 -36.296875 C 1.015625 -36.566406 1 -37.035156 1 -37.703125 C 1 -38.460938 1.097656 -38.960938 1.296875 -39.203125 C 1.429688 -39.429688 1.800781 -39.546875 2.40625 -39.546875 C 3.332031 -39.546875 4.695312 -38.894531 6.5 -37.59375 C 8.664062 -35.96875 9.78125 -35.1875 9.84375 -35.25 C 10.21875 -35.25 10.519531 -35.800781 10.75 -36.90625 C 11.019531 -38.164062 11.238281 -38.894531 11.40625 -39.09375 C 11.664062 -39.46875 11.960938 -39.65625 12.296875 -39.65625 C 12.734375 -39.613281 13.035156 -39.410156 13.203125 -39.046875 L 13.34375 -38.40625 C 13.28125 -37.363281 13.195312 -36.726562 13.09375 -36.5 C 12.5625 -35.46875 12.296875 -34.519531 12.296875 -33.65625 C 12.296875 -33.082031 12.144531 -32.613281 11.84375 -32.25 L 11.34375 -31.703125 L 10.15625 -32.34375 C 8.945312 -32.914062 8.328125 -33.203125 8.296875 -33.203125 C 8.234375 -33.203125 8.203125 -33.1875 8.203125 -33.15625 C 8.203125 -29.488281 8.132812 -24.46875 8 -18.09375 L 7.90625 -12.84375 L 7.953125 -10.65625 C 8.015625 -8.851562 8.046875 -7.5 8.046875 -6.59375 L 8 -3.75 C 7.96875 -2.3125 7.96875 -1.546875 8 -1.453125 C 7.9375 -0.710938 7.71875 -0.34375 7.34375 -0.34375 C 7.175781 -0.34375 6.992188 -0.410156 6.796875 -0.546875 C 6.734375 -0.617188 6.632812 -2.90625 6.5 -7.40625 Z M 6.5 -7.40625 "/></g></g></g><g fill="#8cd918" fill-opacity="1"><g transform="translate(148.757498, 55.294639)"><g><path d="M 7.90625 -38.65625 C 8.132812 -39.050781 8.265625 -39.332031 8.296875 -39.5 C 8.328125 -39.632812 8.507812 -39.832031 8.84375 -40.09375 C 9.113281 -40.300781 9.398438 -40.40625 9.703125 -40.40625 C 10.035156 -40.40625 10.300781 -40.285156 10.5 -40.046875 C 10.800781 -39.546875 11.132812 -38.929688 11.5 -38.203125 C 12.53125 -36.171875 14.082031 -34.550781 16.15625 -33.34375 C 17.050781 -32.8125 17.5 -32.363281 17.5 -32 C 17.5 -31.5 17.148438 -30.515625 16.453125 -29.046875 C 15.816406 -27.710938 15.164062 -25.765625 14.5 -23.203125 C 13.601562 -20.035156 12.988281 -17.203125 12.65625 -14.703125 C 12.019531 -9.960938 11.4375 -6.242188 10.90625 -3.546875 C 10.632812 -2.148438 10.414062 -1.25 10.25 -0.84375 C 10.050781 -0.382812 9.75 -0.15625 9.34375 -0.15625 L 8.84375 -0.25 C 8.476562 -0.351562 8.195312 -0.703125 8 -1.296875 C 7.4375 -3.535156 6.753906 -7.367188 5.953125 -12.796875 C 5.546875 -15.492188 5.0625 -18.09375 4.5 -20.59375 C 2.894531 -27.664062 2.0625 -31.398438 2 -31.796875 L 2 -32 C 2 -32.394531 2.097656 -32.660156 2.296875 -32.796875 C 4.867188 -34.867188 6.21875 -36.019531 6.34375 -36.25 C 7.007812 -37.3125 7.53125 -38.113281 7.90625 -38.65625 Z M 9.65625 -36.25 C 7.050781 -33.644531 5.695312 -32.328125 5.59375 -32.296875 L 4.453125 -31.703125 L 5.15625 -28.546875 C 5.1875 -28.378906 5.273438 -27.828125 5.421875 -26.890625 C 5.578125 -25.960938 5.851562 -24.132812 6.25 -21.40625 L 7.40625 -13.75 C 7.632812 -10.882812 7.984375 -8.414062 8.453125 -6.34375 C 8.921875 -4.34375 9.171875 -3.410156 9.203125 -3.546875 L 11.453125 -17.65625 C 11.878906 -20.613281 12.3125 -23.0625 12.75 -25 C 12.882812 -25.5625 13.351562 -26.960938 14.15625 -29.203125 C 14.582031 -30.335938 14.765625 -30.9375 14.703125 -31 L 14.65625 -31.15625 L 13.09375 -32.296875 C 12.164062 -32.960938 11.367188 -33.796875 10.703125 -34.796875 Z M 9.65625 -36.25 "/></g></g></g></svg>